<svg width="96" height="97" viewBox="0 0 96 97" fill="none" xmlns="http://www.w3.org/2000/svg">
<path d="M28.6419 53.9466C25.0695 58.4806 21.834 63.2961 18.9545 68.3642C17.5959 70.8048 12.9534 76.4643 14.0281 79.4924C18.6679 77.2025 21.8965 72.9664 27.0705 71.2419C29.3103 70.4983 32.4055 69.5052 34.8986 71.426C38.6017 74.2681 35.1695 75.7997 33.1534 77.291C28.8219 80.4659 24.9289 84.3557 20.9241 87.9212C17.8545 90.6629 12.4327 98.7743 6.89985 96.3142C1.36696 93.8541 2.2441 84.7406 2.05745 80.3558C1.7057 73.2166 1.2657 66.0688 0.97551 58.9483C0.888239 56.9832 0.256837 52.8321 2.18914 51.747C4.87319 50.2758 6.49683 53.3552 7.37894 55.7438C7.96053 57.2867 10.9622 74.062 10.9353 74.0722C11.8288 73.6741 13.5285 68.2149 13.8996 67.4092C15.5138 64.0884 17.3281 60.8955 19.3347 57.8449C24.4686 49.7376 29.7134 41.1643 36.9527 34.8646C40.3406 31.9307 44.0959 31.017 48.3532 29.6713C52.3842 28.3982 52.7925 24.1037 54.8287 20.5072C59.142 13.098 65.4271 7.22892 73.1306 3.41641C78.3224 0.802219 91.6309 -3.63782 94.892 6.7602C95.7401 9.46543 95.1918 12.4081 92.8628 9.85254C91.2717 8.11652 92.0259 6.86054 89.5412 5.52271C87.7741 4.77566 85.912 4.68609 84.3262 5.27143C76.2286 7.09722 68.2524 13.3678 63.4148 19.455C61.6147 21.803 58.3641 26.8103 58.2807 30.1119C58.2004 33.038 61.1948 34.0324 63.4629 36.915C69.306 44.3905 69.0935 56.7949 60.6793 59.9492C48.4952 64.4818 47.5597 43.6749 48.9316 37.0346C40.4316 36.5637 32.7247 48.621 28.6419 53.9466ZM59.6773 51.505C63.1006 46.5448 61.191 42.1058 56.0663 37.9994C55.7051 40.3268 54.0472 58.8487 59.6773 51.505C59.1871 52.1444 60.2592 50.6469 59.6773 51.505Z" fill="#512BD4"/>
</svg>
