<svg width="24" height="24" viewBox="0 0 24 24" fill="none" xmlns="http://www.w3.org/2000/svg">
<path d="M3.75 12.8333C3.75 14.772 3.85486 16.2787 4.11637 17.4554C4.37598 18.6236 4.77991 19.42 5.34661 19.9867C5.91331 20.5534 6.70973 20.9573 7.8779 21.217C9.05459 21.4785 10.5613 21.5833 12.5 21.5833C14.4387 21.5833 15.9454 21.4785 17.1221 21.217C18.2903 20.9573 19.0867 20.5534 19.6534 19.9867C20.2201 19.42 20.624 18.6236 20.8836 17.4554C21.1451 16.2787 21.25 14.772 21.25 12.8333C21.25 10.8946 21.1451 9.38792 20.8836 8.21123C20.624 7.04306 20.2201 6.24664 19.6534 5.67994C19.0867 5.11324 18.2903 4.70931 17.1221 4.4497C15.9454 4.18819 14.4387 4.08333 12.5 4.08333C10.5613 4.08333 9.05459 4.18819 7.8779 4.4497C6.70973 4.70931 5.91331 5.11324 5.34661 5.67994C4.77991 6.24664 4.37598 7.04306 4.11637 8.21123C3.85486 9.38792 3.75 10.8946 3.75 12.8333Z" stroke="#D9D9D9" stroke-width="1.5" stroke-linecap="round" stroke-linejoin="round"/>
<path fill-rule="evenodd" clip-rule="evenodd" d="M10.5833 1C10.9975 1 11.3333 1.33579 11.3333 1.75V2.54167C11.3333 2.95588 10.9975 3.29167 10.5833 3.29167C10.1691 3.29167 9.83333 2.95588 9.83333 2.54167V1.75C9.83333 1.33579 10.1691 1 10.5833 1ZM13.75 1C14.1642 1 14.5 1.33579 14.5 1.75V2.54167C14.5 2.95588 14.1642 3.29167 13.75 3.29167C13.3358 3.29167 13 2.95588 13 2.54167V1.75C13 1.33579 13.3358 1 13.75 1ZM9 3.375C8.58579 3.375 8.25 3.71079 8.25 4.125C8.25 4.53921 8.58579 4.875 9 4.875H15.3333C15.7475 4.875 16.0833 4.53921 16.0833 4.125C16.0833 3.71079 15.7475 3.375 15.3333 3.375H9Z" fill="#D9D9D9"/>
<path d="M9 17.5833H16.9167" stroke="#D9D9D9" stroke-width="1.5" stroke-linecap="round" stroke-linejoin="round"/>
<path d="M9 13.625H16.9167" stroke="#D9D9D9" stroke-width="1.5" stroke-linecap="round" stroke-linejoin="round"/>
<path d="M9 9.66667H16.9167" stroke="#D9D9D9" stroke-width="1.5" stroke-linecap="round" stroke-linejoin="round"/>
</svg>
