<svg width="24" height="24" viewBox="0 0 24 24" fill="none" xmlns="http://www.w3.org/2000/svg">
<path d="M18.0417 11.7083C18.0417 8.9375 16.0625 6.95833 13.2917 6.95833" stroke="#D7D7D7" stroke-width="1.5" stroke-linecap="round" stroke-linejoin="round"/>
<path d="M21.2083 11.7083C21.2083 6.95833 18.0417 3.79167 13.2917 3.79167" stroke="#D7D7D7" stroke-width="1.5" stroke-linecap="round" stroke-linejoin="round"/>
<path fill-rule="evenodd" clip-rule="evenodd" d="M4.8578 4.09952C5.45239 3.59299 6.37289 2.96817 7.36627 3.00126L7.3954 3.00223L7.42438 3.00534C7.97519 3.06444 8.47522 3.33934 8.90366 3.75311L8.90633 3.75568C9.19965 4.04163 9.71738 4.64662 10.1675 5.23317C10.3956 5.53039 10.6185 5.83863 10.795 6.11459C10.8831 6.25229 10.9655 6.3911 11.0325 6.5226C11.0929 6.64119 11.1654 6.80065 11.201 6.97045C11.3882 7.84029 10.9957 8.52543 10.7749 8.91092C10.7662 8.926 10.7578 8.94062 10.7498 8.95478L10.7316 8.98672C10.6673 9.09771 10.5854 9.22153 10.5142 9.32905L10.5064 9.34093C10.3568 9.56712 10.2267 9.76655 10.1436 9.94439C10.1196 9.99569 10.1047 10.0346 10.0958 10.0622C10.3973 10.7761 10.8199 11.4835 11.3319 12.1454C11.9487 12.8806 12.898 13.7928 13.3807 14.1328C13.8693 14.4769 14.3738 14.7651 14.8865 14.9867C14.9184 14.9772 14.9651 14.9603 15.0279 14.9313C15.2148 14.8449 15.4217 14.7113 15.6493 14.5624L15.6599 14.5554C15.7601 14.4898 15.8737 14.4155 15.975 14.3565L15.9805 14.3532L16.0132 14.3349C16.0268 14.3273 16.0408 14.3194 16.0552 14.3112C16.4472 14.0901 17.1319 13.704 18.0101 13.8881L18.012 13.8885L18.0082 13.8877L18.0101 13.8881C18.1772 13.9227 18.3354 13.9932 18.454 14.0523C18.5844 14.1174 18.7227 14.1975 18.8604 14.2833C19.1364 14.4553 19.4456 14.6726 19.7445 14.8956C20.3313 15.3333 20.9415 15.8401 21.2332 16.1342L21.2307 16.1318L21.2358 16.1368L21.2332 16.1342C21.6482 16.547 21.9505 17.0551 21.9964 17.6477L21.9975 17.6618L21.9981 17.6759C22.0387 18.651 21.4301 19.5464 20.9293 20.1287C20.4217 20.7189 19.842 21.1943 19.5389 21.3858C19.4623 21.4342 19.5926 21.3474 19.5389 21.3858C18.3342 22.2474 16.8279 22.1416 15.2832 21.4464C15.2466 21.43 15.3144 21.4592 15.2832 21.4464C13.6316 20.7736 11.7287 19.4037 9.94357 17.8044C9.30626 17.2335 8.07844 16.03 7.69176 15.5874C7.69437 15.5902 7.69698 15.5931 7.69959 15.5959L7.68329 15.5777C7.68607 15.5809 7.68889 15.5841 7.69176 15.5874C5.89098 13.6354 4.32538 11.4914 3.56625 9.69413C3.5494 9.65422 3.58188 9.72744 3.56625 9.69413C3.19983 8.9131 3 8.14652 3 7.42218C3 6.70051 3.20407 6.03511 3.60871 5.46067C3.59993 5.47486 3.59174 5.48861 3.58416 5.50186L3.62883 5.43241C3.62207 5.44181 3.61536 5.45123 3.60871 5.46067C3.70361 5.30722 3.86649 5.10096 4.0484 4.89529C4.26001 4.65605 4.53755 4.37234 4.8578 4.09952ZM14.8438 14.9964L14.846 14.9962ZM10.0839 10.108L10.0842 10.1061ZM4.95967 6.28646C4.95821 6.28865 4.95865 6.28781 4.95865 6.28781L4.93813 6.3237L4.91398 6.35725C4.69836 6.65689 4.58333 7.00572 4.58333 7.42218C4.58333 7.86102 4.70672 8.40081 5.00547 9.03396L5.01275 9.04937L5.01935 9.06509C5.67368 10.6221 7.10594 12.6186 8.86299 14.5219L8.87128 14.5309L8.87929 14.5401C9.19302 14.9018 10.3784 16.0682 11.0001 16.6251C12.7398 18.1836 14.4879 19.4158 15.8924 19.9849L15.907 19.9909L15.9213 19.9973C17.2209 20.5852 18.0701 20.4974 18.6316 20.088L18.6593 20.0678L18.6887 20.05C18.8121 19.9754 19.2907 19.6057 19.7289 19.0962C20.185 18.566 20.4224 18.0845 20.4166 17.757C20.4046 17.6492 20.3415 17.48 20.1153 17.2555L20.1103 17.2505C19.9031 17.0412 19.3657 16.5883 18.7978 16.1648C18.5186 15.9564 18.2479 15.7672 18.0229 15.627C17.9102 15.5568 17.8177 15.5043 17.7472 15.4692C17.7036 15.4474 17.6798 15.4381 17.6725 15.4352C17.4213 15.3868 17.2152 15.4758 16.7885 15.7155L16.7671 15.7274C16.7062 15.7632 16.6277 15.8143 16.5163 15.8872L16.4984 15.8989C16.292 16.0341 15.9948 16.2286 15.6923 16.3685C15.4257 16.4917 14.9211 16.6885 14.4109 16.5035L14.3941 16.4974L14.3775 16.4905C13.7109 16.214 13.0718 15.8518 12.4689 15.4272C11.8316 14.9783 10.7753 13.9478 10.108 13.15L10.0987 13.1388L10.0897 13.1273C9.47259 12.3317 8.95418 11.4608 8.58788 10.5592L8.58363 10.5488L8.57967 10.5382C8.39031 10.031 8.5888 9.53141 8.70928 9.27375C8.84671 8.97983 9.03872 8.68968 9.17359 8.48589C9.17773 8.47963 9.18181 8.47346 9.18584 8.46737C9.26676 8.34504 9.32229 8.26056 9.36001 8.19562L9.37421 8.1707C9.61885 7.74152 9.70172 7.5451 9.6551 7.31323C9.65219 7.30599 9.6429 7.28296 9.62165 7.24124C9.58616 7.17158 9.53294 7.07989 9.46119 6.9677C9.31806 6.74391 9.12461 6.4749 8.91143 6.19712C8.47993 5.63485 8.01661 5.09989 7.80244 4.89076C7.5794 4.67575 7.40213 4.60304 7.28279 4.58337C6.92865 4.58688 6.42372 4.84549 5.88456 5.3048C5.63004 5.52163 5.40521 5.75115 5.23438 5.94428C5.14927 6.04051 5.08024 6.12468 5.02972 6.19028C4.98584 6.24725 4.96499 6.27849 4.95967 6.28646Z" fill="#D7D7D7"/>
</svg>
