<svg width="24" height="24" viewBox="0 0 24 24" fill="none" xmlns="http://www.w3.org/2000/svg">
<path d="M2 12C2 14.2418 2.12143 15.975 2.42108 17.3234C2.71821 18.6603 3.17712 19.5568 3.81017 20.1898C4.44322 20.8229 5.33967 21.2818 6.67664 21.5789C8.02497 21.8786 9.7582 22 12 22C14.2418 22 15.975 21.8786 17.3234 21.5789C18.6603 21.2818 19.5568 20.8229 20.1898 20.1898C20.8229 19.5568 21.2818 18.6603 21.5789 17.3234C21.8786 15.975 22 14.2418 22 12C22 9.7582 21.8786 8.02497 21.5789 6.67664C21.2818 5.33967 20.8229 4.44322 20.1898 3.81017C19.5568 3.17712 18.6603 2.71821 17.3234 2.42108C15.975 2.12143 14.2418 2 12 2C9.7582 2 8.02497 2.12143 6.67664 2.42108C5.33967 2.71821 4.44322 3.17712 3.81017 3.81017C3.17712 4.44322 2.71821 5.33967 2.42108 6.67664C2.12143 8.02497 2 9.7582 2 12Z" stroke="#3F3F3F" stroke-width="2" stroke-linecap="round" stroke-linejoin="round"/>
<path d="M8.33333 10.1666L6.5 12L8.33333 13.8333" stroke="#3F3F3F" stroke-width="2" stroke-linecap="round" stroke-linejoin="round"/>
<path d="M15.6667 10.1666L17.5 12L15.6667 13.8333" stroke="#3F3F3F" stroke-width="2" stroke-linecap="round" stroke-linejoin="round"/>
<path d="M10.1016 16.6203C9.99624 17.1624 10.3503 17.6873 10.8924 17.7927C11.4346 17.8981 11.9595 17.544 12.0649 17.0019L10.1016 16.6203ZM13.891 7.60746C13.9964 7.06532 13.6423 6.5404 13.1002 6.43502C12.558 6.32964 12.0331 6.6837 11.9277 7.22584L13.891 7.60746ZM12.0649 17.0019L13.891 7.60746L11.9277 7.22584L10.1016 16.6203L12.0649 17.0019Z" fill="#3F3F3F"/>
</svg>
