<svg width="33" height="31" viewBox="0 0 33 31" fill="none" xmlns="http://www.w3.org/2000/svg">
<path d="M26.3736 1.46881C27.5676 1.17637 28.694 2.13564 28.6529 3.36417C28.4956 8.05687 29.1308 11.3964 31.5701 15.5654C32.1819 16.6112 31.6572 17.9847 30.4804 18.2729C29.6553 18.475 28.8027 18.0502 28.4763 17.2659C26.3576 12.1743 25.3675 8.70014 25.0143 3.30186C24.9581 2.44245 25.5371 1.6737 26.3736 1.46881Z" fill="#F1891E"/>
<path d="M8.4549 2.26021C9.39353 1.52265 10.7725 1.83607 11.3207 2.89646C15.2551 10.5063 18.6416 15.209 25.3857 20.8793C26.2925 21.6417 26.2904 23.0514 25.3589 23.7834C24.6197 24.3642 23.5588 24.2919 22.907 23.6145C16.4841 16.9406 12.7524 12.4366 8.01137 4.70794C7.5152 3.89909 7.70878 2.84649 8.4549 2.26021Z" fill="#F1891E"/>
<path d="M0.468263 24.8253C0.238373 26.2721 1.49843 27.5107 2.95238 27.3308C8.21966 26.6789 12.0655 27.0835 16.9736 29.474C18.2709 30.1058 19.8571 29.3559 20.0835 27.9308C20.2405 26.9432 19.6624 25.9831 18.7122 25.6716C12.7244 23.7085 8.66504 22.9023 2.48388 23.0436C1.46991 23.0668 0.627414 23.8236 0.468263 24.8253Z" fill="#F1891E"/>
</svg>
