<svg width="36" height="34" viewBox="0 0 36 34" fill="none" xmlns="http://www.w3.org/2000/svg">
<path d="M32.7252 0.296073C33.8049 0.27672 34.5843 1.31683 34.3111 2.3615C33.2675 6.35194 33.165 9.33644 34.4477 13.381C34.7694 14.3956 34.0538 15.4708 32.9896 15.4899C32.2436 15.5032 31.5953 14.9741 31.4675 14.2389C30.6382 9.46586 30.4626 6.29732 31.2055 1.60345C31.3237 0.856183 31.9688 0.309632 32.7252 0.296073Z" fill="#621EF1"/>
<path d="M10.4273 5.25537C11.2518 4.60746 12.4632 4.88278 12.9448 5.81429C16.401 12.4992 19.3759 16.6304 25.3002 21.6114C26.0968 22.2811 26.095 23.5195 25.2767 24.1625C24.6273 24.6728 23.6954 24.6092 23.1228 24.0142C17.4806 18.1515 14.2025 14.1949 10.0377 7.40559C9.6018 6.69505 9.77185 5.77039 10.4273 5.25537Z" fill="#621EF1"/>
<path d="M0.301215 30.5291C0.255935 31.8153 1.48738 32.76 2.73577 32.4473C7.25833 31.3141 10.6549 31.2544 15.1905 32.8123C16.3894 33.2241 17.6919 32.4001 17.7365 31.1333C17.7674 30.2554 17.1605 29.4803 16.2986 29.3106C10.8674 28.2411 7.24166 27.9735 1.86754 28.7595C0.985959 28.8885 0.332562 29.6387 0.301215 30.5291Z" fill="#621EF1"/>
</svg>
