<svg width="24" height="24" viewBox="0 0 24 24" fill="none" xmlns="http://www.w3.org/2000/svg">
<path d="M4.13813 15.7911L4.85287 15.5638L4.13813 15.7911ZM3.1324 10.0821L3.85487 10.2834L3.1324 10.0821ZM7.33208 5.74484L6.88496 5.14268L7.33208 5.74484ZM3.235 9.75936L3.94109 10.0122L3.235 9.75936ZM6.87651 21.2134L6.45194 21.8316L6.87651 21.2134ZM6.60791 21.0139L6.1389 21.5992L6.60791 21.0139ZM20.8619 15.7911L20.1471 15.5638L20.8619 15.7911ZM18.3921 21.0139L18.8611 21.5992L18.3921 21.0139ZM18.1235 21.2134L18.5481 21.8316L18.1235 21.2134ZM17.6679 5.74484L18.115 5.14268L17.6679 5.74484ZM21.765 9.75936L21.0589 10.0122L21.765 9.75936ZM21.8676 10.0821L21.1451 10.2834L21.8676 10.0821ZM12.666 3.00311L12.6379 3.75258L12.666 3.00311ZM12.334 3.00311L12.3621 3.75258L12.334 3.00311ZM11.75 19.4934C11.75 19.9076 12.0858 20.2434 12.5 20.2434C12.9142 20.2434 13.25 19.9076 13.25 19.4934H11.75ZM13.25 17.6422C13.25 17.228 12.9142 16.8922 12.5 16.8922C12.0858 16.8922 11.75 17.228 11.75 17.6422H13.25ZM16.1226 21.8875L16.2147 22.6318L16.1226 21.8875ZM4.85287 15.5638C4.38678 14.0978 4.05583 13.0536 3.88228 12.2066C3.71217 11.3763 3.70949 10.805 3.85487 10.2834L2.40994 9.88072C2.17725 10.7156 2.21618 11.5479 2.41281 12.5077C2.60601 13.4506 2.96695 14.5827 3.42338 16.0183L4.85287 15.5638ZM6.88496 5.14268C5.69046 6.02963 4.74602 6.72963 4.04618 7.37756C3.33295 8.03788 2.82127 8.69005 2.52891 9.50652L3.94109 10.0122C4.12302 9.50416 4.45228 9.04574 5.06523 8.47826C5.69156 7.89839 6.55851 7.25338 7.77919 6.34699L6.88496 5.14268ZM3.85487 10.2834C3.88036 10.192 3.90913 10.1015 3.94109 10.0122L2.52891 9.50652C2.48478 9.62975 2.4451 9.75456 2.40994 9.88072L3.85487 10.2834ZM3.42338 16.0183C3.87977 17.4538 4.2389 18.5867 4.62502 19.4659C5.01784 20.3603 5.46625 21.0601 6.1389 21.5992L7.07692 20.4287C6.66357 20.0974 6.33835 19.6367 5.9984 18.8627C5.65177 18.0734 5.319 17.03 4.85287 15.5638L3.42338 16.0183ZM7.30109 20.5951C7.22443 20.5425 7.14966 20.4869 7.07692 20.4287L6.1389 21.5992C6.2404 21.6805 6.34481 21.7581 6.45194 21.8316L7.30109 20.5951ZM20.1471 15.5638C19.681 17.03 19.3482 18.0734 19.0016 18.8627C18.6617 19.6367 18.3364 20.0974 17.9231 20.4287L18.8611 21.5992C19.5338 21.0601 19.9822 20.3603 20.375 19.4659C20.7611 18.5867 21.1202 17.4538 21.5766 16.0183L20.1471 15.5638ZM17.9231 20.4287C17.8503 20.487 17.7756 20.5425 17.6989 20.5951L18.5481 21.8316C18.6552 21.758 18.7596 21.6805 18.8611 21.5992L17.9231 20.4287ZM17.2208 6.34699C18.4415 7.25338 19.3084 7.89839 19.9348 8.47826C20.5477 9.04574 20.877 9.50416 21.0589 10.0122L22.4711 9.50652C22.1787 8.69005 21.667 8.03788 20.9538 7.37756C20.254 6.72963 19.3095 6.02963 18.115 5.14268L17.2208 6.34699ZM21.5766 16.0183C22.033 14.5827 22.394 13.4506 22.5872 12.5077C22.7838 11.5479 22.8227 10.7156 22.5901 9.88072L21.1451 10.2834C21.2905 10.805 21.2878 11.3763 21.1177 12.2066C20.9442 13.0536 20.6132 14.0978 20.1471 15.5638L21.5766 16.0183ZM21.0589 10.0122C21.0909 10.1015 21.1196 10.1919 21.1451 10.2834L22.5901 9.88072C22.5549 9.75457 22.5152 9.62975 22.4711 9.50652L21.0589 10.0122ZM18.115 5.14268C16.9207 4.25585 15.9772 3.55401 15.1576 3.07376C14.3229 2.58468 13.5532 2.28585 12.6941 2.25364L12.6379 3.75258C13.1579 3.77208 13.6816 3.94744 14.3993 4.36796C15.132 4.79731 16 5.44048 17.2208 6.34699L18.115 5.14268ZM7.77919 6.34699C9.00004 5.44048 9.86797 4.79731 10.6007 4.36796C11.3184 3.94744 11.8421 3.77208 12.3621 3.75258L12.3059 2.25364C11.4468 2.28585 10.6771 2.58468 9.8424 3.07376C9.02277 3.55401 8.07931 4.25585 6.88496 5.14268L7.77919 6.34699ZM12.6941 2.25364C12.5647 2.24879 12.4353 2.24879 12.3059 2.25364L12.3621 3.75258C12.454 3.74914 12.546 3.74914 12.6379 3.75258L12.6941 2.25364ZM15.3726 17.6422V21.3445H16.8726V17.6422H15.3726ZM9.62742 21.3445V17.6422H8.12742V21.3445H9.62742ZM12.5 14.6899C14.0712 14.6899 15.3726 15.9962 15.3726 17.6422H16.8726C16.8726 15.1988 14.9302 13.1899 12.5 13.1899V14.6899ZM12.5 13.1899C10.0698 13.1899 8.12742 15.1988 8.12742 17.6422H9.62742C9.62742 15.9962 10.9288 14.6899 12.5 14.6899V13.1899ZM13.25 19.4934V17.6422H11.75V19.4934H13.25ZM12.5 22.75C14.042 22.75 15.2495 22.7513 16.2147 22.6318L16.0304 21.1432C15.1786 21.2487 14.0801 21.25 12.5 21.25V22.75ZM16.2147 22.6318C17.1158 22.5203 17.8696 22.2975 18.5481 21.8316L17.6989 20.5951C17.2844 20.8798 16.7872 21.0495 16.0304 21.1432L16.2147 22.6318ZM15.3726 21.3445V21.8875H16.8726V21.3445H15.3726ZM12.5 21.25C10.9199 21.25 9.8214 21.2487 8.96956 21.1432L8.78527 22.6318C9.75055 22.7513 10.958 22.75 12.5 22.75V21.25ZM8.96956 21.1432C8.21283 21.0495 7.71559 20.8798 7.30109 20.5951L6.45194 21.8316C7.13041 22.2975 7.88418 22.5203 8.78527 22.6318L8.96956 21.1432ZM8.12742 21.3445V21.8875H9.62742V21.3445H8.12742Z" fill="#494949"/>
</svg>
