<svg width="24" height="24" viewBox="0 0 24 24" fill="none" xmlns="http://www.w3.org/2000/svg">
<path d="M2.91614 17.8916C2.54947 19.1083 3.44112 20.3333 4.69946 20.3333H15.6495C16.5161 20.3333 17.2578 19.75 17.4661 18.9084L20.2745 7.63334C20.3745 7.21667 20.3411 6.8083 20.1828 6.44997C19.9078 5.7833 19.2495 5.29996 18.4578 5.29996H8.20781C7.39114 5.29996 6.6578 5.83337 6.42446 6.62504L4.23279 13.675" stroke="#292D32" stroke-width="1.5" stroke-miterlimit="10" stroke-linecap="round" stroke-linejoin="round"/>
<path d="M15.333 20.3333H19.3163C20.3913 20.3333 21.233 19.425 21.158 18.35L20.333 7" stroke="#292D32" stroke-width="1.5" stroke-miterlimit="10" stroke-linecap="round" stroke-linejoin="round"/>
<path d="M10.0664 7.31667L10.9331 3.71671" stroke="#292D32" stroke-width="1.5" stroke-miterlimit="10" stroke-linecap="round" stroke-linejoin="round"/>
<path d="M15.6504 7.32501L16.4337 3.70837" stroke="#292D32" stroke-width="1.5" stroke-miterlimit="10" stroke-linecap="round" stroke-linejoin="round"/>
<path d="M8.41699 12H15.0837" stroke="#292D32" stroke-width="1.5" stroke-miterlimit="10" stroke-linecap="round" stroke-linejoin="round"/>
<path d="M14.2503 15.3333H13.667" stroke="#292D32" stroke-width="1.5" stroke-miterlimit="10" stroke-linecap="round" stroke-linejoin="round"/>
<path d="M7.58398 15.3333H11.1673" stroke="#292D32" stroke-width="1.5" stroke-miterlimit="10" stroke-linecap="round" stroke-linejoin="round"/>
</svg>
