<svg
      xmlns="http://www.w3.org/2000/svg"
      width="37"
      height="34"
      fill="none"
      viewBox="0 0 37 34"
    >
      <path
        stroke="#3F3F3F"
        strokeLinecap="round"
        strokeLinejoin="round"
        strokeWidth="2"
        d="M34.304 5.982a7.277 7.277 0 00-1.518-1.995c-1.181-1.086-2.826-1.841-5.168-2.32C25.268 1.187 22.288 1 18.5 1c-5.001 0-8.576.329-11.14 1.206-2.266.777-3.725 1.975-4.682 3.811a48.822 48.822 0 005.006 4.807c1.6 1.326 3.42 2.632 5.298 3.602 1.887.973 3.77 1.576 5.517 1.574 1.743-.002 3.621-.608 5.502-1.583 1.873-.97 3.687-2.276 5.283-3.6a48.78 48.78 0 005.02-4.835zM2.324 8.568a50.352 50.352 0 01-.452-.474C1.248 10.29 1 13.18 1 17c0 7.027.85 10.841 3.214 13.014 1.181 1.085 2.826 1.84 5.168 2.319 2.35.48 5.33.667 9.118.667 3.788 0 6.769-.188 9.118-.667 2.342-.479 3.987-1.234 5.168-2.32C35.151 27.841 36 24.027 36 17c0-3.868-.257-6.762-.883-8.945a50.796 50.796 0 01-4.556 4.302c-1.662 1.379-3.597 2.777-5.64 3.836-2.034 1.055-4.238 1.804-6.42 1.807-2.186.003-4.396-.744-6.436-1.797-2.048-1.058-3.99-2.457-5.657-3.838a50.83 50.83 0 01-4.085-3.797z"
      ></path>
    </svg>