<svg width="30" height="28" viewBox="0 0 30 28" fill="none" xmlns="http://www.w3.org/2000/svg">
<path d="M10 20.3638H20" stroke="#3F3F3F" stroke-width="2" stroke-linecap="round" stroke-linejoin="round"/>
<path d="M1 14C1 19.7939 1.69524 22.8611 3.55013 24.5923C4.47464 25.4552 5.77158 26.0654 7.64814 26.4546C9.53245 26.8455 11.933 27 15 27C18.067 27 20.4675 26.8455 22.3519 26.4546C24.2284 26.0654 25.5254 25.4552 26.4499 24.5923C28.3048 22.8611 29 19.7939 29 14C29 8.20611 28.3048 5.13891 26.4499 3.40768C25.5254 2.5448 24.2284 1.93464 22.3519 1.54539C20.4675 1.15454 18.067 1 15 1C10.9477 1 8.07866 1.2713 6.03405 1.98239C4.06207 2.66821 2.87435 3.75502 2.12749 5.4869C1.3146 7.37191 1 10.0748 1 14Z" stroke="#3F3F3F" stroke-width="2" stroke-linecap="round" stroke-linejoin="round"/>
</svg>
