<svg width="24" height="25" viewBox="0 0 24 25" fill="none" xmlns="http://www.w3.org/2000/svg">
<path d="M23 16.8507L23.6936 17.136C23.8126 16.8467 23.7396 16.514 23.5104 16.3011C23.2812 16.0883 22.944 16.04 22.6643 16.18L23 16.8507ZM10.0155 1.00002L10.6207 1.44296C10.8049 1.19128 10.8141 0.851879 10.6439 0.590578C10.4736 0.329277 10.1594 0.200613 9.85477 0.267446L10.0155 1.00002ZM18.395 17.1866C13.0564 17.1866 8.70771 12.7838 8.70771 7.32666L7.20771 7.32666C7.20771 13.5889 12.2049 18.6866 18.395 18.6866L18.395 17.1866ZM22.6643 16.18C21.3769 16.8245 19.9284 17.1866 18.395 17.1866L18.395 18.6866C20.1674 18.6866 21.8452 18.2675 23.3358 17.5214L22.6643 16.18ZM22.3064 16.5654C20.6894 20.4969 16.8757 23.2476 12.4404 23.2476L12.4404 24.7476C17.516 24.7476 21.8578 21.5994 23.6936 17.136L22.3064 16.5654ZM12.4404 23.2476C6.54782 23.2476 1.75 18.3883 1.75 12.3679L0.25 12.3679C0.249999 19.1934 5.69629 24.7476 12.4404 24.7476L12.4404 23.2476ZM1.75 12.3679C1.75 7.14237 5.36742 2.7876 10.1762 1.7326L9.85477 0.267446C4.3563 1.47375 0.25 6.43932 0.25 12.3679L1.75 12.3679ZM8.70771 7.32666C8.70771 5.11941 9.4194 3.08448 10.6207 1.44296L9.41025 0.557089C8.02604 2.44852 7.20771 4.79212 7.20771 7.32666L8.70771 7.32666Z" fill="#404040"/>
<path d="M17.3434 2.77415C17.5689 2.16472 18.4309 2.16472 18.6564 2.77415L19.5087 5.07759C19.5796 5.26919 19.7307 5.42026 19.9223 5.49116L22.2257 6.3435C22.8352 6.56901 22.8352 7.43099 22.2257 7.6565L19.9223 8.50884C19.7307 8.57974 19.5796 8.73081 19.5087 8.92241L18.6564 11.2258C18.4309 11.8353 17.5689 11.8353 17.3434 11.2258L16.491 8.92241C16.4201 8.73081 16.2691 8.57974 16.0775 8.50884L13.774 7.6565C13.1646 7.43099 13.1646 6.56901 13.774 6.3435L16.0775 5.49116C16.2691 5.42026 16.4201 5.26919 16.491 5.07759L17.3434 2.77415Z" stroke="#404040" stroke-width="1.5" stroke-linecap="round"/>
</svg>
