<svg width="24" height="24" viewBox="0 0 24 24" fill="none" xmlns="http://www.w3.org/2000/svg">
<path fill-rule="evenodd" clip-rule="evenodd" d="M10.3834 9.03357L4.57695 3.505C4.59457 3.50671 4.61228 3.50888 4.63007 3.51152L11.7098 4.56176C13.2474 4.78986 14.5705 5.78915 15.2117 7.20708L17.2774 12.0488L14.7729 14.5476L12.0399 17.2278L7.21648 15.18C5.79392 14.5398 4.79315 13.2199 4.5647 11.6879L3.5115 4.62494C3.50795 4.60111 3.50525 4.57745 3.50337 4.55397L9.349 10.1199C9.64899 10.4055 10.1237 10.3939 10.4093 10.0939C10.695 9.79393 10.6833 9.3192 10.3834 9.03357ZM11.596 18.6689L6.62318 16.5577L6.60956 16.5517C4.71947 15.7047 3.38576 13.9522 3.08111 11.9091L2.0279 4.84617C1.90658 4.03258 2.18966 3.27236 2.70622 2.74485C3.23605 2.2038 4.01508 1.90387 4.85018 2.02776L11.9299 3.078C13.9758 3.3815 15.7327 4.71094 16.5824 6.5977L16.5884 6.61137L18.8562 11.927C18.8698 11.9589 18.8811 11.9914 18.89 12.0242L19.3568 12.4819L19.393 12.5175C19.929 13.0431 20.3846 13.4898 20.6992 13.8942C21.0339 14.3245 21.2825 14.7964 21.2825 15.3763C21.2825 15.9562 21.0339 16.4282 20.6992 16.8584C20.3846 17.2629 19.929 17.7095 19.393 18.2352L19.3568 18.2707L18.2039 19.4013L18.168 19.4365C17.6317 19.9625 17.1764 20.4091 16.7644 20.7174C16.3253 21.0459 15.8511 21.2839 15.2734 21.2839C14.6957 21.2839 14.2214 21.0459 13.7824 20.7174C13.3704 20.4091 12.9151 19.9625 12.3787 19.4365L12.3429 19.4013L11.6292 18.7015L11.596 18.6689ZM13.2479 18.1879L13.3932 18.3304C13.9752 18.9011 14.3591 19.2755 14.6811 19.5164C14.9851 19.7439 15.1466 19.7839 15.2734 19.7839C15.4002 19.7839 15.5617 19.7439 15.8657 19.5164C16.1877 19.2755 16.5716 18.9011 17.1536 18.3304L18.3065 17.1998C18.8887 16.6288 19.2701 16.2525 19.5153 15.9373C19.7475 15.6388 19.7825 15.4873 19.7825 15.3763C19.7825 15.2653 19.7475 15.1138 19.5153 14.8153C19.2701 14.5001 18.8887 14.1238 18.3065 13.5529L18.118 13.368L15.8277 15.614L13.2479 18.1879Z" fill="#D9D9D9"/>
<ellipse rx="1.71476" ry="1.71015" transform="matrix(1 0 0.015901 0.999874 9.63648 9.3396)" fill="#D9D9D9"/>
</svg>
