<svg width="24" height="24" viewBox="0 0 24 24" fill="none" xmlns="http://www.w3.org/2000/svg">
<path d="M3.75 11.5C3.75 13.4387 3.85486 14.9454 4.11637 16.1221C4.37598 17.2903 4.77991 18.0867 5.34661 18.6534C5.91331 19.2201 6.70973 19.624 7.8779 19.8836C9.05459 20.1451 10.5613 20.25 12.5 20.25C14.4387 20.25 15.9454 20.1451 17.1221 19.8836C18.2903 19.624 19.0867 19.2201 19.6534 18.6534C20.2201 18.0867 20.624 17.2903 20.8836 16.1221C21.1451 14.9454 21.25 13.4387 21.25 11.5C21.25 9.56131 21.1451 8.05459 20.8836 6.8779C20.624 5.70973 20.2201 4.91331 19.6534 4.34661C19.0867 3.77991 18.2903 3.37598 17.1221 3.11637C15.9454 2.85486 14.4387 2.75 12.5 2.75C10.5613 2.75 9.05459 2.85486 7.8779 3.11637C6.70973 3.37598 5.91331 3.77991 5.34661 4.34661C4.77991 4.91331 4.37598 5.70973 4.11637 6.8779C3.85486 8.05459 3.75 9.56131 3.75 11.5Z" stroke="#D9D9D9" stroke-width="1.5" stroke-linecap="round" stroke-linejoin="round"/>
<path d="M14.9627 13.2221L16.4674 9.13743C16.8361 8.13681 15.863 7.16379 14.8624 7.53239L10.7778 9.03709C10.4342 9.16364 10.1634 9.43442 10.0369 9.77795L8.5322 13.8626C8.1636 14.8632 9.13663 15.8362 10.1372 15.4676L14.2219 13.9629C14.5654 13.8364 14.8362 13.5656 14.9627 13.2221Z" stroke="#D9D9D9" stroke-width="1.5" stroke-linecap="round" stroke-linejoin="round"/>
</svg>
