<svg width="323" height="362" viewBox="0 0 323 362" fill="none" xmlns="http://www.w3.org/2000/svg">
<path d="M83.9971 146.376C84.2272 142.225 85.9277 138.139 89.0995 134.966C95.9391 128.127 107.028 128.127 113.867 134.966C117.287 138.386 118.997 142.868 118.997 147.351C118.997 151.833 117.287 156.316 113.867 159.735C110.696 162.906 106.61 164.607 102.458 164.837L83.9971 146.376ZM107.335 142.438V138.97L101.207 142.646L104.018 144.334L107.335 142.438ZM107.335 144.118L97.1412 149.943L107.335 155.769V144.118ZM100.789 161.105C100.596 159.984 100.282 158.886 99.85 157.821C99.0425 155.831 97.8564 154.044 96.3237 152.511C94.6793 150.866 92.7508 149.625 90.5916 148.82C89.656 148.471 88.7 148.213 87.7286 148.044L100.789 161.105ZM107.944 162.054C109.768 161.252 111.413 160.124 112.836 158.703C114.368 157.17 115.555 155.383 116.362 153.393C117.142 151.469 117.537 149.437 117.537 147.351C117.537 145.265 117.142 143.232 116.362 141.309C115.555 139.318 114.368 137.532 112.836 135.999C111.302 134.466 109.516 133.279 107.525 132.472C105.602 131.692 103.569 131.296 101.484 131.296C99.3976 131.296 97.3651 131.692 95.4413 132.472C93.4509 133.279 91.6645 134.466 90.1312 135.999C88.7091 137.421 87.5822 139.067 86.7816 140.89C86.0932 142.458 85.6644 144.111 85.5026 145.818L86.0686 146.384C89.2062 146.58 92.3016 147.616 94.988 149.493L102.565 145.163L98.3696 142.646L108.794 136.391V141.604V148.901V158.283L97.9162 152.067C100.698 155.115 102.208 158.907 102.449 162.765L103.017 163.332C104.722 163.171 106.377 162.741 107.944 162.054Z" fill="#621EF1" style="mix-blend-mode:multiply"/>
<path d="M76.9971 296.712L87.0055 288.164L87.9176 287.385L97.926 278.837L113.566 297.148L103.558 305.696L102.646 306.475L92.6371 315.024L76.9971 296.712ZM111.947 297.02L97.7987 280.455L88.6633 288.258L102.811 304.823L111.947 297.02ZM87.7512 289.037L78.6159 296.84L92.7639 313.404L101.899 305.602L87.7512 289.037L87.7512 289.037Z" fill="#621EF1"/>
<path d="M87.0308 298.859L84.7576 299.238L86.5807 293.805L88.1769 295.674L90.4119 298.291L93.283 301.652L85.4964 303.133L87.0308 298.859ZM87.0239 296.092L86.4504 297.792L87.4786 297.62L87.7287 296.917L87.0239 296.092ZM88.5869 297.922L87.2548 301.631L91.1268 300.896L88.5869 297.922Z" fill="#621EF1"/>
<path d="M93.7825 300.475L87.8232 293.498C87.6192 293.259 87.6479 292.894 87.8893 292.688C88.1276 292.484 88.4923 292.513 88.6963 292.752L94.6556 299.729C94.8618 299.97 94.8299 300.331 94.5916 300.535C94.3502 300.741 93.9887 300.716 93.7825 300.475Z" fill="#621EF1"/>
<path d="M97.8525 284.931C97.6485 284.692 97.6743 284.33 97.9157 284.124C98.1571 283.918 98.5187 283.949 98.7227 284.188C98.9289 284.429 98.9035 284.791 98.662 284.998C98.4205 285.204 98.0587 285.173 97.8525 284.931Z" fill="#621EF1"/>
<path d="M99.3417 286.674C99.1383 286.436 99.1641 286.074 99.4055 285.868C99.6469 285.662 100.008 285.693 100.212 285.931C100.418 286.173 100.393 286.535 100.151 286.741C99.9098 286.947 99.5479 286.916 99.3417 286.674Z" fill="#621EF1"/>
<path d="M100.833 288.422C100.627 288.18 100.653 287.818 100.894 287.612C101.136 287.405 101.497 287.437 101.703 287.678C101.907 287.917 101.881 288.279 101.64 288.485C101.399 288.691 101.037 288.66 100.833 288.422Z" fill="#621EF1"/>
<path d="M102.322 290.164C102.116 289.923 102.142 289.56 102.384 289.354C102.625 289.148 102.986 289.179 103.193 289.421C103.396 289.658 103.37 290.02 103.129 290.227C102.887 290.433 102.525 290.402 102.322 290.164Z" fill="#621EF1"/>
<path d="M103.812 291.908C103.606 291.667 103.634 291.307 103.875 291.101C104.117 290.895 104.476 290.924 104.682 291.165C104.888 291.407 104.86 291.765 104.618 291.971C104.377 292.177 104.018 292.15 103.812 291.908Z" fill="#621EF1"/>
<path d="M100.438 289.727L103.309 293.088L95.5257 294.566L97.0605 290.292L94.784 290.674L96.6072 285.241L98.2034 287.11L100.438 289.727L100.438 289.727ZM101.156 292.329L98.6162 289.355L97.2844 293.064L101.156 292.329ZM97.0533 287.525L96.4801 289.226L97.5051 289.056L97.7581 288.351L97.0533 287.525L97.0533 287.525Z" fill="#621EF1"/>
<path d="M95.4206 309.41C95.1056 309.385 94.8688 309.108 94.8936 308.793L95.1216 305.934L93.9776 305.844C93.6626 305.819 93.4258 305.542 93.4506 305.227C93.4754 304.912 93.7494 304.678 94.0676 304.7L95.7803 304.835C96.0975 304.862 96.3321 305.137 96.3073 305.452L96.0376 308.883C96.0128 309.198 95.7356 309.435 95.4206 309.41Z" fill="#621EF1"/>
<path d="M105.735 296.332C106.052 296.359 106.289 296.632 106.262 296.949L106.264 296.952L106.172 298.093L107.316 298.183C107.631 298.208 107.867 298.485 107.843 298.8C107.818 299.115 107.543 299.349 107.226 299.327L106.085 299.235L105.994 300.379C105.97 300.694 105.692 300.93 105.378 300.905C105.063 300.88 104.826 300.603 104.851 300.288L104.941 299.145L103.799 299.057L103.797 299.054C103.482 299.03 103.247 298.755 103.27 298.437C103.294 298.123 103.572 297.886 103.887 297.911L105.031 298.001L105.118 296.859C105.145 296.542 105.42 296.307 105.735 296.332Z" fill="#621EF1"/>
<path d="M203.893 276.066L202.153 276.76L201.573 276.992L200.993 277.223C200.361 275.638 198.545 274.869 196.946 275.507C195.347 276.146 194.56 277.954 195.193 279.538L194.612 279.77L194.032 280.001L192.292 280.696L182.337 279.339L182.134 272.091L186.073 271.852L180.798 258.634L197.039 252.152L202.315 265.37L205.336 262.832L210.179 268.227L203.893 276.066ZM205.207 264.557L203.117 266.314L201.791 267.428L201.154 265.833L196.338 253.765L182.416 259.321L187.233 271.389L187.869 272.984L186.141 273.089L183.415 273.255L183.555 278.253L192.141 279.423L193.742 278.784C193.578 276.923 194.648 275.092 196.487 274.358C198.327 273.624 200.363 274.216 201.525 275.678L203.126 275.039L208.548 268.278L205.207 264.557Z" fill="#621EF1" style="mix-blend-mode:multiply"/>
<path d="M192.257 266.435L191.893 268.623L187.494 265.303L189.704 264.421L192.798 263.187L196.775 261.599L195.685 269.14L192.257 266.435ZM190.002 265.634L191.001 266.389L191.14 265.554L190.826 265.306L190.002 265.635L190.002 265.634ZM192.162 264.772L194.761 266.823L195.235 263.546L192.162 264.772Z" fill="#621EF1" style="mix-blend-mode:multiply"/>
<g clip-path="url(#clip0_312_370)">
<path d="M96.0474 27.8279L86.9971 19.1012L80.1385 25.7144C78.7717 27.0328 76.5556 27.0328 75.1888 25.7144C74.5052 25.0552 74.1634 24.1917 74.1634 23.3282C74.1634 22.4646 74.5052 21.6003 75.1888 20.9411L82.0474 14.3279L72.9971 5.60119L77.9467 0.827881L86.9971 9.55458L94.8806 1.9526L99.8307 1.9526V6.7259L91.9467 14.3279L100.997 23.0546L96.0474 27.8279ZM86.1721 18.3052L84.9382 17.1154L79.7296 22.1384L80.9635 23.3282L86.1721 18.3052ZM76.0134 21.7371C75.5729 22.1622 75.3303 22.7267 75.3303 23.3282C75.3303 23.9289 75.573 24.4941 76.0134 24.9193C76.9235 25.796 78.4039 25.796 79.3135 24.9193L80.1385 24.1233L76.8384 20.9411L76.0134 21.7371ZM77.6634 20.146L78.9046 21.3424L84.1131 16.3203L82.8724 15.1231L77.6634 20.146ZM74.6471 5.60119L76.2724 7.1684L77.0974 6.37243C77.3251 6.15326 77.6947 6.15326 77.9224 6.37243C78.1501 6.59243 78.1501 6.94839 77.9224 7.1684C77.9224 7.1684 77.922 7.1684 77.9215 7.16924L77.0974 7.96353L78.7474 9.55463L79.5724 8.7595C79.8001 8.53949 80.1697 8.53949 80.3974 8.7595C80.6252 8.97866 80.6252 9.33546 80.3974 9.55463C80.397 9.55463 80.397 9.55463 80.397 9.55463L79.5724 10.3506L81.2225 11.9417L82.0466 11.1466C82.0466 11.1466 82.047 11.1457 82.0475 11.1457C82.2752 10.9266 82.6443 10.9266 82.872 11.1457C83.1002 11.3657 83.1002 11.7217 82.872 11.9417H82.8725L82.0475 12.7368L83.697 14.3279L84.522 13.5328C84.7502 13.3127 85.1193 13.3127 85.347 13.5328C85.5748 13.7519 85.5748 14.1079 85.347 14.3279L84.522 15.123L86.1721 16.7141L86.9971 15.919C87.2248 15.699 87.5944 15.699 87.8221 15.919C88.0498 16.1381 88.0498 16.4949 87.8221 16.7141C87.8216 16.715 87.8216 16.715 87.8216 16.715L86.9971 17.5101L88.6471 19.1012L89.4717 18.3052H89.4721C89.6998 18.086 90.069 18.086 90.2971 18.3052C90.5249 18.5252 90.5249 18.8812 90.2971 19.1012L89.4721 19.8963L91.1221 21.4874L91.9467 20.6923C92.1749 20.4723 92.544 20.4723 92.7717 20.6923C92.9995 20.9115 92.9999 21.2674 92.7717 21.4874C92.7717 21.4874 92.7717 21.4874 92.7713 21.4874L91.9467 22.2825L93.5968 23.8736L94.4213 23.0794L94.4218 23.0785C94.6495 22.8585 95.0191 22.8585 95.2468 23.0785C95.4745 23.2985 95.4745 23.6545 95.2468 23.8736L94.4218 24.6696L96.0475 26.2368L99.3471 23.0546L77.9467 2.41898L74.6471 5.60119ZM98.6639 3.07732H97.6974L98.6639 4.01008V3.07732ZM98.6639 6.25952V5.60034L96.0474 3.07732H95.3643L87.8221 10.3505L89.0632 11.547L94.8845 5.93405C95.1122 5.71404 95.4818 5.71404 95.7095 5.93405C95.9372 6.15321 95.9372 6.50917 95.7095 6.72917L89.8883 12.3429L91.1218 13.5327L98.6639 6.25952Z" fill="#621EF1"/>
</g>
<g clip-path="url(#clip1_312_370)">
<path d="M62.0474 228.837L52.9971 220.11L46.1385 226.724C44.7717 228.042 42.5556 228.042 41.1888 226.724C40.5052 226.064 40.1634 225.201 40.1634 224.337C40.1634 223.474 40.5052 222.609 41.1888 221.95L48.0474 215.337L38.9971 206.61L43.9467 201.837L52.9971 210.564L60.8806 202.962H65.8307V207.735L57.9467 215.337L66.9971 224.064L62.0474 228.837ZM52.1721 219.314L50.9382 218.125L45.7296 223.148L46.9635 224.337L52.1721 219.314ZM42.0134 222.746C41.5729 223.171 41.3303 223.736 41.3303 224.337C41.3303 224.938 41.573 225.503 42.0134 225.928C42.9235 226.805 44.4039 226.805 45.3135 225.928L46.1385 225.132L42.8384 221.95L42.0134 222.746ZM43.6634 221.155L44.9046 222.352L50.1131 217.329L48.8724 216.132L43.6634 221.155ZM40.6471 206.61L42.2724 208.178L43.0974 207.382C43.3251 207.162 43.6947 207.162 43.9224 207.382C44.1501 207.602 44.1501 207.958 43.9224 208.178C43.9224 208.178 43.922 208.178 43.9215 208.178L43.0974 208.973L44.7474 210.564L45.5724 209.769C45.8001 209.549 46.1697 209.549 46.3974 209.769C46.6252 209.988 46.6252 210.345 46.3974 210.564C46.397 210.564 46.397 210.564 46.397 210.564L45.5724 211.36L47.2225 212.951L48.0466 212.156C48.0466 212.156 48.047 212.155 48.0475 212.155C48.2752 211.936 48.6443 211.936 48.872 212.155C49.1002 212.375 49.1002 212.731 48.872 212.951H48.8725L48.0475 213.746L49.697 215.337L50.522 214.542C50.7502 214.322 51.1193 214.322 51.347 214.542C51.5748 214.761 51.5748 215.117 51.347 215.337L50.522 216.132L52.1721 217.723L52.9971 216.928C53.2248 216.708 53.5944 216.708 53.8221 216.928C54.0498 217.147 54.0498 217.504 53.8221 217.723C53.8216 217.724 53.8216 217.724 53.8216 217.724L52.9971 218.519L54.6471 220.11L55.4717 219.314H55.4721C55.6998 219.095 56.069 219.095 56.2971 219.314C56.5249 219.534 56.5249 219.89 56.2971 220.11L55.4721 220.905L57.1221 222.497L57.9467 221.701C58.1749 221.481 58.544 221.481 58.7717 221.701C58.9995 221.921 58.9999 222.277 58.7717 222.497C58.7717 222.497 58.7717 222.497 58.7713 222.497L57.9467 223.292L59.5968 224.883L60.4213 224.089L60.4218 224.088C60.6495 223.868 61.0191 223.868 61.2468 224.088C61.4745 224.308 61.4745 224.664 61.2468 224.883L60.4218 225.679L62.0475 227.246L65.3471 224.064L43.9467 203.428L40.6471 206.61ZM64.6639 204.086H63.6974L64.6639 205.019V204.086ZM64.6639 207.269V206.609L62.0474 204.086H61.3643L53.8221 211.36L55.0632 212.556L60.8845 206.943C61.1122 206.723 61.4818 206.723 61.7095 206.943C61.9372 207.162 61.9372 207.518 61.7095 207.738L55.8883 213.352L57.1218 214.542L64.6639 207.269Z" fill="#621EF1" style="mix-blend-mode:multiply"/>
</g>
<path d="M247.585 223.665L252.445 218.647C252.668 218.416 253.037 218.411 253.267 218.634C253.499 218.858 253.505 219.227 253.281 219.458L248.422 224.475C248.198 224.706 247.83 224.711 247.598 224.487C247.368 224.264 247.362 223.896 247.585 223.665Z" fill="#621EF1" style="mix-blend-mode:multiply"/>
<path d="M251.608 217.837L249.988 219.509C249.764 219.74 249.396 219.746 249.165 219.523C248.934 219.299 248.929 218.931 249.153 218.7L250.772 217.028C250.996 216.797 251.364 216.791 251.595 217.014C251.826 217.238 251.831 217.606 251.608 217.837Z" fill="#621EF1" style="mix-blend-mode:multiply"/>
<path d="M239.468 229.912L238.93 227.901L243.968 229.075L242.425 230.668L240.266 232.897L237.488 235.765L235.497 228.896L239.468 229.912ZM241.701 229.741L240.556 229.475L240.76 230.242L241.125 230.335L241.701 229.741ZM240.193 231.298L237.183 230.529L238.047 233.513L240.193 231.298Z" fill="#621EF1" style="mix-blend-mode:multiply"/>
<path d="M225.402 226.489L244.029 207.255C244.253 207.024 244.622 207.018 244.853 207.242L256.56 218.581C256.791 218.804 256.797 219.173 256.573 219.404L237.945 238.637C237.722 238.868 237.353 238.874 237.123 238.651L225.415 227.311C225.184 227.088 225.178 226.719 225.402 226.489ZM227.438 226.06L240.299 222.562C240.401 222.535 240.557 222.374 240.582 222.27L243.669 209.301L227.438 226.06ZM255.331 219.012L244.948 208.955L241.715 222.54C241.653 222.797 241.504 223.049 241.305 223.254C241.107 223.459 240.86 223.617 240.605 223.686L227.128 227.35L237.514 237.409L255.331 219.012V219.012Z" fill="#621EF1" style="mix-blend-mode:multiply"/>
<path d="M39.7243 183.837C32.695 183.837 26.9971 178.166 26.9971 171.17C26.9971 168.863 27.6169 166.701 28.7001 164.837C27.617 162.973 26.9971 160.811 26.9971 158.504C26.9971 151.508 32.695 145.837 39.7243 145.837C44.4732 145.837 48.6138 148.425 50.8009 152.262C57.1078 153.014 61.9971 158.357 61.9971 164.837C61.9971 171.317 57.1078 176.66 50.8009 177.413C48.6138 181.249 44.4732 183.837 39.7243 183.837ZM51.6231 154.001C52.1579 155.401 52.4515 156.918 52.4515 158.504C52.4515 160.811 51.8316 162.973 50.7485 164.837C51.8316 166.701 52.4515 168.863 52.4515 171.17C52.4515 172.756 52.1578 174.273 51.6231 175.673C52.2994 175.528 52.9613 175.32 53.6039 175.05C54.9299 174.492 56.1214 173.692 57.1445 172.674C58.1676 171.656 58.971 170.471 59.5321 169.151C60.1123 167.785 60.4066 166.334 60.4066 164.837C60.4066 163.34 60.1124 161.889 59.5321 160.523C58.9711 159.203 58.1676 158.018 57.1445 157C56.1214 155.982 54.93 155.182 53.6039 154.624C52.9613 154.354 52.2994 154.146 51.6231 154.001ZM49.7948 175.908C49.8612 175.768 49.9253 175.627 49.9864 175.484C50.5667 174.119 50.861 172.667 50.861 171.17C50.861 169.673 50.5668 168.222 49.9864 166.857C49.909 166.675 49.8268 166.497 49.7406 166.319C47.487 169.175 44.0269 171.044 40.1239 171.163C40.4997 171.7 40.9239 172.206 41.3952 172.674C42.4183 173.692 43.6097 174.492 44.9352 175.05C46.3072 175.628 47.7655 175.92 49.2699 175.92C49.4458 175.92 49.6206 175.916 49.7948 175.908ZM39.1994 169.574C39.3736 169.582 39.5484 169.587 39.7243 169.587C41.2286 169.587 42.6869 169.295 44.0583 168.717C45.3844 168.158 46.5758 167.359 47.5989 166.341C48.0685 165.874 48.4909 165.372 48.865 164.837C48.4909 164.302 48.0685 163.8 47.5989 163.333C46.5758 162.315 45.3844 161.516 44.0583 160.957C42.6869 160.379 41.2286 160.087 39.7243 160.087C39.5484 160.087 39.3736 160.092 39.1994 160.1C39.1329 160.239 39.0689 160.38 39.0077 160.523C38.4274 161.889 38.1332 163.34 38.1332 164.837C38.1332 166.334 38.4274 167.785 39.0077 169.151C39.0689 169.294 39.1329 169.435 39.1994 169.574ZM36.5426 164.837C36.5426 163.252 36.8363 161.734 37.3711 160.335C36.6947 160.48 36.0328 160.687 35.3902 160.957C34.0642 161.516 32.8727 162.315 31.8496 163.333C31.38 163.8 30.9577 164.302 30.5836 164.837C30.9577 165.372 31.38 165.874 31.8496 166.341C32.8727 167.359 34.0641 168.158 35.3902 168.717C36.0328 168.988 36.6947 169.195 37.3711 169.339C36.8362 167.94 36.5426 166.422 36.5426 164.837ZM40.1239 158.511C44.0269 158.63 47.487 160.499 49.7406 163.355C49.8268 163.178 49.909 162.999 49.9864 162.817C50.5667 161.452 50.861 160.001 50.861 158.504C50.861 157.007 50.5668 155.555 49.9864 154.19C49.9253 154.048 49.8612 153.906 49.7948 153.766C49.6206 153.758 49.4458 153.754 49.2699 153.754C47.7655 153.754 46.3072 154.046 44.9358 154.624C43.6098 155.182 42.4183 155.982 41.3952 157C40.9239 157.469 40.4997 157.974 40.1239 158.511ZM29.708 163.355C31.7414 160.777 34.7569 159.005 38.1932 158.596C40.3186 154.867 44.2897 152.318 48.8702 152.177C48.4944 151.64 48.0702 151.136 47.5989 150.667C46.5758 149.648 45.3844 148.849 44.0583 148.291C42.6869 147.713 41.2286 147.42 39.7243 147.42C38.22 147.42 36.7617 147.713 35.3902 148.291C34.0642 148.849 32.8727 149.648 31.8496 150.667C30.8266 151.685 30.0232 152.87 29.4621 154.19C28.8818 155.555 28.5875 157.007 28.5875 158.504C28.5875 160.001 28.8817 161.452 29.4621 162.817C29.5396 162.999 29.6217 163.178 29.708 163.355ZM35.3902 181.383C36.7617 181.961 38.22 182.254 39.7243 182.254C41.2286 182.254 42.6869 181.961 44.0583 181.383C45.3844 180.825 46.5758 180.026 47.5989 179.007C48.0702 178.539 48.4944 178.034 48.8702 177.497C44.2897 177.356 40.3186 174.807 38.1932 171.078C34.7569 170.669 31.7413 168.897 29.708 166.319C29.6218 166.497 29.5396 166.675 29.4621 166.857C28.8819 168.222 28.5876 169.673 28.5876 171.17C28.5876 172.667 28.8818 174.119 29.4621 175.484C30.0232 176.804 30.8266 177.989 31.8497 179.007C32.8727 180.026 34.0642 180.825 35.3902 181.383Z" fill="#621EF1" style="mix-blend-mode:multiply"/>
<path d="M67.9039 73.886L72.957 81.2313L75.1226 84.3793L80.1762 91.7254L55.7128 110.1L41.997 90.1625L67.9039 73.886ZM67.5465 75.614L65.3881 76.9708L69.8089 83.3969L71.9075 81.9532L67.5465 75.614ZM72.6297 83.0031L68.4325 85.8905L69.1542 86.9396L73.3514 84.0522L72.6297 83.0031ZM74.0731 85.1013L71.9745 86.545L76.3958 92.9719L78.4341 91.4406L74.0731 85.1013ZM56.0103 108.284L75.3764 93.7377L70.925 87.267L68.8264 88.7107C68.5367 88.91 68.1406 88.8371 67.9413 88.5474C67.742 88.2577 67.815 87.8609 68.1047 87.6616C67.815 87.8609 67.4184 87.7873 67.219 87.4975C67.0197 87.2077 67.0932 86.8118 67.383 86.6125C67.0932 86.8118 66.6967 86.7382 66.4973 86.4484C66.298 86.1586 66.371 85.762 66.6608 85.5626L68.7594 84.1189L64.3085 77.649L43.7993 90.534L56.0103 108.284Z" fill="#621EF1"/>
<path d="M61.9013 89.1322L59.2246 94.6875L62.3492 94.4924L59.1216 101.573L57.2309 98.8242L54.584 94.9767L51.1806 90.0293L61.9013 89.1322ZM58.8962 98.9965L60.3094 95.8956L58.5904 96.0024L57.8684 97.5024L58.8962 98.9965L58.8962 98.9965ZM57.0367 96.2934L59.7861 90.5872L53.4746 91.1155L57.0367 96.2934Z" fill="#621EF1"/>
<g clip-path="url(#clip2_312_370)">
<path d="M178.634 335.122C176.384 335.122 174.561 333.299 174.561 331.049C174.561 330.748 174.594 330.455 174.656 330.173L171.956 327.473L164.63 334.799C163.361 336.067 161.304 336.067 160.035 334.799C159.401 334.165 159.083 333.333 159.083 332.502C159.083 331.67 159.401 330.838 160.035 330.204L167.361 322.878L159.017 314.534C158.594 314.111 158.383 313.557 158.383 313.003C158.383 312.448 158.594 311.894 159.017 311.471C159.863 310.625 161.235 310.625 162.081 311.471L170.424 319.815L178.316 311.922H182.911V316.518L175.019 324.41L177.695 327.085C177.996 327.014 178.311 326.976 178.634 326.976C183.246 326.976 183.612 333.778 183.612 336.028C183.612 338.277 180.883 335.122 178.634 335.122ZM160.167 332.502C160.167 333.08 160.392 333.623 160.801 334.033C161.646 334.877 163.02 334.877 163.864 334.033L164.63 333.267L161.567 330.204L160.801 330.969C160.392 331.379 160.167 331.922 160.167 332.502ZM161.315 312.237C160.893 311.814 160.205 311.814 159.783 312.237C159.579 312.441 159.466 312.713 159.466 313.003C159.466 313.292 159.579 313.564 159.783 313.769L168.127 322.112L169.658 320.581L161.315 312.237ZM181.828 313.006H180.931L181.828 313.903V313.006ZM181.828 316.069V315.435L179.399 313.006H178.765L162.333 329.438L163.485 330.59L178.319 315.756C178.531 315.544 178.874 315.544 179.085 315.756C179.297 315.967 179.297 316.31 179.085 316.521L164.25 331.356L165.396 332.501L181.828 316.069ZM174.254 325.175L172.722 326.707L175.077 329.063C175.436 328.422 175.963 327.888 176.598 327.52L174.254 325.175ZM181.826 331.004C181.509 330.062 181.095 329.336 180.597 328.846C180.06 328.317 179.418 328.06 178.634 328.06C177.835 328.06 177.084 328.37 176.519 328.935C175.955 329.5 175.644 330.25 175.644 331.049C175.644 332.698 176.985 334.039 178.634 334.039C179.867 334.039 181.069 334.696 182.035 335.225C182.18 335.303 182.353 335.399 182.522 335.486C182.491 334.319 182.348 332.553 181.826 331.004Z" fill="#621EF1" style="mix-blend-mode:multiply"/>
</g>
<g clip-path="url(#clip3_312_370)">
<path d="M140.444 245.523L154.014 293.417L143.73 296.332L130.159 248.437L140.444 245.523ZM151.816 292.189L150.858 288.811L149.144 289.298C148.67 289.431 148.178 289.156 148.043 288.683C147.91 288.21 148.185 287.718 148.658 287.583C148.659 287.583 148.659 287.583 148.659 287.583L150.372 287.098L149.401 283.669L147.688 284.155C147.213 284.289 146.721 284.014 146.587 283.54C146.453 283.068 146.727 282.574 147.201 282.441L148.916 281.956L147.944 278.527L146.23 279.012L146.229 279.012C145.757 279.147 145.264 278.871 145.13 278.399C144.996 277.924 145.271 277.432 145.744 277.299C145.745 277.298 145.745 277.298 145.745 277.298L147.458 276.813L146.487 273.384L144.773 273.87C144.299 274.004 143.807 273.729 143.672 273.256C143.539 272.783 143.814 272.29 144.287 272.156L146.001 271.67L145.03 268.242L143.316 268.728C142.842 268.862 142.35 268.587 142.216 268.113C142.081 267.64 142.356 267.148 142.83 267.013L144.545 266.528L143.573 263.1L141.858 263.585C141.386 263.72 140.892 263.444 140.759 262.971C140.625 262.497 140.899 262.005 141.373 261.871C141.373 261.871 141.373 261.871 141.373 261.871L143.087 261.385L142.115 257.957L140.402 258.443C139.928 258.577 139.436 258.302 139.301 257.828C139.168 257.355 139.443 256.863 139.915 256.728C139.915 256.728 139.915 256.728 139.917 256.729L141.63 256.243L140.659 252.814L138.946 253.299C138.946 253.3 138.945 253.3 138.945 253.3C138.471 253.434 137.979 253.159 137.845 252.686C137.71 252.212 137.985 251.72 138.459 251.586L140.173 251.1L139.216 247.723L132.359 249.665L144.959 294.132L151.816 292.189Z" fill="#621EF1" style="mix-blend-mode:multiply"/>
</g>
<path d="M55.7804 284.08L38.3751 270.033C38.1667 269.865 38.1337 269.558 38.3024 269.35L48.0741 257.242C48.2428 257.033 48.549 257.001 48.7574 257.169L55.0369 262.237L56.4163 259.601L56.2649 259.479C56.0566 259.311 56.0238 259.004 56.1925 258.795C56.3611 258.586 56.6674 258.554 56.8758 258.722L62.9303 263.609C63.1387 263.777 63.1716 264.083 63.003 264.292C62.8344 264.501 62.5279 264.534 62.3195 264.365L62.1676 264.243L59.8821 266.147L66.1627 271.216C66.3711 271.384 66.404 271.69 66.2354 271.899L56.4636 284.007C56.295 284.216 55.9888 284.248 55.7804 284.08ZM57.1884 260.224L55.8109 262.856L59.1124 265.522L61.3962 263.62L57.1884 260.224L57.1884 260.224ZM56.0121 283.017L63.9514 273.18L47.3043 259.745L39.365 269.582L56.0121 283.017ZM56.8495 264.949L48.5259 258.231L47.9151 258.988L56.2387 265.706L64.5622 272.423L65.173 271.667L56.8495 264.949Z" fill="#621EF1" style="mix-blend-mode:multiply"/>
<path d="M56.9221 265.632C56.7534 265.841 56.4477 265.874 56.2388 265.706C56.0299 265.537 55.9975 265.231 56.1661 265.022C56.3348 264.813 56.6407 264.78 56.8496 264.949C57.0586 265.118 57.0907 265.424 56.9221 265.632Z" fill="#621EF1" style="mix-blend-mode:multiply"/>
<path d="M41.7214 268.986L53.0711 278.146C53.0711 278.146 53.0716 278.146 53.0722 278.147C53.2806 278.315 53.3135 278.621 53.1449 278.83C52.9762 279.039 52.6698 279.072 52.4614 278.903L41.1106 269.742C40.9011 269.573 40.8683 269.267 41.037 269.058C41.2056 268.849 41.5119 268.817 41.7214 268.986Z" fill="#621EF1" style="mix-blend-mode:multiply"/>
<path d="M42.9433 267.472L48.9962 272.357C48.9967 272.358 48.9967 272.358 48.9967 272.358C49.2057 272.527 49.2381 272.832 49.0694 273.041C48.9008 273.25 48.5951 273.283 48.3861 273.114L42.3327 268.229C42.1232 268.06 42.0903 267.754 42.2589 267.545C42.4275 267.336 42.7338 267.303 42.9433 267.472Z" fill="#621EF1" style="mix-blend-mode:multiply"/>
<path d="M44.1647 265.957L52.4877 272.674C52.4883 272.675 52.4883 272.675 52.4883 272.675C52.6973 272.844 52.7296 273.149 52.561 273.358C52.3924 273.567 52.0864 273.6 51.8775 273.432L43.5539 266.714C43.3444 266.545 43.3114 266.239 43.4801 266.03C43.6489 265.82 43.9552 265.788 44.1647 265.957Z" fill="#621EF1" style="mix-blend-mode:multiply"/>
<path d="M45.3859 264.445L50.6822 268.719C50.8917 268.888 50.9247 269.195 50.756 269.404C50.5874 269.613 50.2812 269.645 50.0716 269.476L44.7751 265.202C44.5656 265.033 44.5329 264.726 44.7015 264.517C44.8702 264.308 45.1764 264.276 45.3859 264.445Z" fill="#621EF1" style="mix-blend-mode:multiply"/>
<path d="M46.6074 262.932L56.444 270.87L56.4442 270.87C56.6537 271.039 56.6864 271.346 56.5178 271.555C56.3492 271.764 56.0429 271.796 55.8334 271.627L45.9968 263.688C45.7873 263.519 45.7543 263.213 45.923 263.004C46.0916 262.795 46.3979 262.762 46.6074 262.932Z" fill="#621EF1" style="mix-blend-mode:multiply"/>
<path d="M47.8293 261.418L50.8554 263.86C51.0649 264.029 51.0979 264.335 50.9292 264.544C50.7606 264.753 50.4541 264.786 50.2446 264.617L47.2185 262.175C47.009 262.006 46.976 261.699 47.1446 261.49C47.3135 261.281 47.6198 261.249 47.8293 261.418Z" fill="#621EF1" style="mix-blend-mode:multiply"/>
<path d="M180.111 194.552L176.111 190.751L189.12 186.426L187.841 192.163L186.049 200.195L183.746 210.521L169.73 197.758L180.111 194.552ZM186.537 189.286L179.714 191.555L182.191 193.909L185.751 192.809L186.537 189.286V189.286ZM185.275 194.944L173.466 198.591L182.605 206.914L185.275 194.944Z" fill="#621EF1"/>
<path d="M155.077 204.126L153.184 203.703C152.661 203.587 152.33 203.078 152.444 202.566C152.558 202.053 153.074 201.734 153.597 201.85L155.49 202.272L156.317 198.565L154.424 198.143C153.901 198.026 153.57 197.518 153.684 197.006C153.798 196.493 154.314 196.173 154.837 196.29L156.73 196.712L157.557 193.005L155.664 192.583C155.141 192.467 154.81 191.957 154.924 191.446C155.038 190.933 155.555 190.613 156.077 190.729L157.97 191.152L158.797 187.445L156.904 187.023C156.381 186.906 156.05 186.397 156.164 185.885C156.279 185.373 156.795 185.052 157.317 185.169L159.21 185.591L160.037 181.884L158.144 181.462C157.621 181.346 157.29 180.836 157.405 180.325C157.519 179.812 158.035 179.492 158.558 179.609L160.451 180.031L161.691 174.47L203.336 183.759L195.481 218.974L153.836 209.686L155.077 204.126ZM194.04 216.708L201.068 185.199L163.131 176.737L162.304 180.444L164.118 180.849C164.641 180.965 164.972 181.475 164.858 181.987C164.744 182.499 164.227 182.819 163.705 182.702L161.891 182.298L161.064 186.005L162.878 186.409C163.401 186.526 163.732 187.035 163.618 187.548C163.504 188.059 162.987 188.379 162.464 188.263L160.651 187.858L159.824 191.565L161.638 191.97C162.16 192.086 162.492 192.595 162.378 193.108C162.264 193.62 161.747 193.94 161.224 193.823L159.411 193.419L158.584 197.126L160.397 197.53C160.92 197.647 161.252 198.155 161.138 198.668C161.023 199.18 160.507 199.5 159.984 199.383L158.171 198.979L157.344 202.686L159.157 203.09C159.68 203.207 160.012 203.716 159.897 204.229C159.783 204.741 159.267 205.06 158.744 204.943L156.93 204.539L156.103 208.246L194.04 216.708Z" fill="#621EF1"/>
<path d="M81.4317 215.068L101.437 192.332C101.677 192.059 102.093 192.032 102.366 192.272L118.183 206.188C118.456 206.429 118.482 206.845 118.242 207.118L111.024 215.321L114.511 217.339L114.684 217.141C114.925 216.868 115.341 216.842 115.614 217.082C115.887 217.322 115.913 217.738 115.673 218.011L108.715 225.92C108.474 226.193 108.059 226.219 107.786 225.979C107.513 225.739 107.486 225.323 107.726 225.05L107.9 224.852L105.456 221.65L98.2369 229.855C97.9968 230.128 97.5813 230.154 97.3083 229.914L81.4915 215.997C81.2184 215.757 81.1916 215.341 81.4317 215.068ZM113.624 218.347L110.142 216.332L106.345 220.645L108.787 223.844L113.624 218.347L113.624 218.347ZM87.7981 219.793L90.4075 216.827L85.4649 212.478L82.8555 215.444L87.7981 219.793ZM91.3961 217.697L88.7868 220.662L95.7064 226.751L98.3157 223.785L91.3961 217.697ZM86.3344 211.49L99.1853 222.797L114.841 205.003L101.991 193.696L86.3344 211.49ZM107.252 217.616L116.819 206.743L115.83 205.873L106.263 216.746L96.695 227.621L97.6837 228.491L107.252 217.616Z" fill="#621EF1" style="mix-blend-mode:multiply"/>
<path d="M106.322 217.675C106.049 217.434 106.023 217.019 106.263 216.745C106.503 216.472 106.919 216.446 107.192 216.686C107.465 216.926 107.492 217.342 107.252 217.615C107.011 217.889 106.595 217.915 106.322 217.675Z" fill="#621EF1" style="mix-blend-mode:multiply"/>
<path d="M102.553 210.977L99.5708 214.366L96.9491 206.714L101.491 207.646L100.775 205.403L106.529 206.457L104.872 208.341L102.553 210.977ZM98.9417 208.467L100.081 211.792L102.385 209.174L98.9417 208.467ZM104.004 207.334L102.697 207.094L102.97 207.95L103.387 208.035L104.004 207.334Z" fill="#621EF1" style="mix-blend-mode:multiply"/>
<path d="M100.488 199.388L101.357 198.4L102.346 199.27L101.477 200.258L100.488 199.388Z" fill="#621EF1" style="mix-blend-mode:multiply"/>
<path d="M95.7047 204.824L96.5742 203.836L97.5629 204.706L96.6933 205.694L95.7047 204.824Z" fill="#621EF1" style="mix-blend-mode:multiply"/>
<path d="M90.9213 210.262L91.7915 209.272L92.7802 210.142L91.91 211.131L90.9213 210.262Z" fill="#621EF1" style="mix-blend-mode:multiply"/>
<path d="M94.8754 213.741L95.7456 212.752L96.7339 213.622L95.8637 214.611L94.8754 213.741Z" fill="#621EF1" style="mix-blend-mode:multiply"/>
<path d="M98.829 217.221L99.6992 216.232L100.688 217.102L99.8177 218.091L98.829 217.221Z" fill="#621EF1" style="mix-blend-mode:multiply"/>
<path d="M108.397 206.348L109.266 205.36L110.255 206.23L109.385 207.218L108.397 206.348Z" fill="#621EF1" style="mix-blend-mode:multiply"/>
<path d="M104.442 202.868L105.312 201.88L106.3 202.749L105.431 203.738L104.442 202.868Z" fill="#621EF1" style="mix-blend-mode:multiply"/>
<path d="M103.613 211.784L104.483 210.796L105.472 211.666L104.602 212.654L103.613 211.784Z" fill="#621EF1" style="mix-blend-mode:multiply"/>
<path d="M286.805 260.837H282.891V254.89H275.997V250.784H282.891V244.837H286.805V250.784H293.997V254.89H286.805V260.837Z" fill="#621EF1"/>
<path d="M318.997 301.309C317.491 301.309 304.648 297.203 309.167 313.217C313.686 329.231 306.154 334.158 291.638 337.443C277.122 340.728 275.753 350.309 276.027 357.837" stroke="#621EF1" stroke-width="8" stroke-linecap="round" stroke-linejoin="round" style="mix-blend-mode:multiply"/>
<path d="M71.7766 345.034C72.0466 344.505 75.7849 340.725 69.3717 339.455C62.9585 338.185 62.5842 334.659 64.0363 328.972C65.4884 323.285 62.3814 321.094 59.6983 319.847" stroke="#621EF1" stroke-width="8" stroke-linecap="round" stroke-linejoin="round" style="mix-blend-mode:multiply"/>
<circle r="8" transform="matrix(0 1 1 0 13.6201 74.4841)" stroke="#621EF1" stroke-width="10"/>
<circle r="10.5" transform="matrix(0 1 1 0 121.497 342.337)" stroke="#621EF1" stroke-width="10" style="mix-blend-mode:multiply"/>
<defs>
<clipPath id="clip0_312_370">
<rect width="27" height="28" fill="white" transform="matrix(0 1 1 0 72.9971 0.827881)"/>
</clipPath>
<clipPath id="clip1_312_370">
<rect width="27" height="28" fill="white" transform="matrix(0 1 1 0 38.9971 201.837)"/>
</clipPath>
<clipPath id="clip2_312_370">
<rect width="26" height="26" fill="white" transform="matrix(0 1 1 0 157.997 310.837)"/>
</clipPath>
<clipPath id="clip3_312_370">
<rect width="42.7584" height="42.7584" fill="white" transform="matrix(-0.873088 -0.487562 -0.487562 0.873088 171.176 262.685)"/>
</clipPath>
</defs>
</svg>
