<svg width="195" height="195" viewBox="0 0 195 195" fill="none" xmlns="http://www.w3.org/2000/svg">
<path d="M193.909 97.0999C181.326 96.1543 168.888 94.8451 156.378 94.4814C143.868 94.1178 131.285 93.8996 118.774 93.8268H105.973C115.065 89.8264 124.084 85.8261 132.957 81.6802C134.267 81.0984 132.957 78.9163 132.012 79.4255C124.739 82.1894 117.465 85.0987 110.192 88.0808C119.162 78.9648 128.278 69.9216 137.54 60.951C147.65 50.9137 157.251 40.8037 167.288 30.7664C167.51 30.5253 167.627 30.2059 167.613 29.8785C167.599 29.5511 167.456 29.2426 167.215 29.0208C166.974 28.7989 166.655 28.682 166.327 28.6956C166 28.7092 165.691 28.8524 165.47 29.0935C155.869 37.3125 146.195 45.1677 137.031 53.8231C127.866 62.4784 118.92 71.1338 109.973 80.0074L99.6453 90.0447V89.5355C103.282 80.662 106.919 71.7884 111.428 63.2785C111.496 63.1174 111.531 62.9443 111.531 62.7694C111.531 62.5945 111.496 62.4214 111.428 62.2602C111.531 62.1779 111.606 62.0664 111.645 61.9405C111.683 61.8145 111.683 61.6799 111.644 61.5542C111.604 61.4286 111.528 61.3176 111.425 61.236C111.321 61.1543 111.196 61.1057 111.065 61.0965H110.628C110.438 61.0145 110.233 60.9721 110.025 60.972C109.818 60.9718 109.613 61.0138 109.422 61.0955C109.232 61.1771 109.06 61.2967 108.917 61.4469C108.774 61.5972 108.663 61.7749 108.592 61.9693C105.755 69.2427 102.627 76.5161 99.5725 83.7895C99.5725 70.261 99.5725 56.6597 99.5725 43.0584C99.5725 29.4572 99.5725 14.8376 99.1361 0.654488C99.1361 -0.800194 96.9541 -0.800194 96.8086 0.654488C95.7904 13.2375 94.5539 25.675 94.1902 38.1853C93.8265 50.6955 93.6083 63.2785 93.4629 75.7888C93.4629 77.8981 93.4629 80.0801 93.4629 82.2621C90.8444 75.4978 88.226 68.7336 85.5349 62.042C85.0985 61.0238 83.4256 61.4602 83.7892 62.5512C86.6986 70.7701 89.7534 78.9891 92.8083 87.1353C82.8437 77.1707 72.7337 66.9152 61.6054 57.0234C50.477 47.1316 40.6579 38.1125 30.0388 29.0935C29.7784 28.8331 29.4252 28.6868 29.0569 28.6868C28.6886 28.6868 28.3354 28.8331 28.075 29.0935C27.8145 29.3539 27.6682 29.7071 27.6682 30.0754C27.6682 30.4437 27.8145 30.7969 28.075 31.0573L87.2805 89.8265C78.5524 85.8988 69.8243 82.0439 60.9507 78.4799C60.2961 78.4799 59.787 79.3527 60.4416 79.7164C69.4606 84.5169 78.6251 89.0991 87.7896 93.6086C73.2428 93.6086 58.696 93.6086 44.1492 94.2632C29.6024 94.9178 15.8556 95.7179 1.74523 96.6634C1.37871 96.6634 1.02721 96.809 0.768044 97.0682C0.508879 97.3274 0.363281 97.6789 0.363281 98.0454C0.363281 98.4119 0.508879 98.7634 0.768044 99.0226C1.02721 99.2817 1.37871 99.4273 1.74523 99.4273H82.9892C74.2611 103.282 65.6785 107.21 57.1686 111.428C57.0292 111.55 56.9319 111.712 56.8907 111.892C56.8495 112.072 56.8665 112.261 56.9393 112.431C57.0121 112.601 57.1369 112.743 57.2957 112.837C57.4545 112.932 57.6392 112.973 57.8232 112.956C68.1514 109.246 78.3342 105.246 88.5169 101.1C77.8978 111.647 67.3513 122.339 57.1686 133.394C46.9858 144.45 38.2577 154.342 29.0932 164.961C27.9295 166.27 29.7478 168.161 30.9843 166.925C50.768 147.286 70.3334 127.503 90.0444 107.864C86.5531 116.374 83.2074 125.539 80.0071 134.412C79.4979 135.794 81.7527 136.449 82.2618 134.994C85.8985 124.739 89.5352 114.629 93.8265 104.519C93.8265 120.084 93.8265 135.722 94.5539 151.287C95.1357 165.47 96.0086 179.58 96.9541 193.691C97.0251 193.994 97.1968 194.265 97.441 194.459C97.6853 194.652 97.9879 194.758 98.2997 194.758C98.6114 194.758 98.914 194.652 99.1583 194.459C99.4026 194.265 99.5742 193.994 99.6453 193.691C99.6453 164.161 99.6453 134.558 99.6453 105.028C102.773 113.32 105.9 121.684 108.955 129.976C109.683 131.939 112.737 131.067 112.01 129.176L102.918 105.682C113.392 116.374 123.648 126.703 134.048 137.322C144.449 147.941 154.196 157.033 164.233 167.288C165.324 168.379 166.852 166.779 165.906 165.615C157.687 156.087 149.832 146.341 141.176 137.249C132.521 128.157 123.647 118.775 115.065 109.828C113.174 107.792 111.21 105.828 109.246 103.791C117.247 107.574 125.248 111.065 133.321 114.92C135.139 115.72 136.667 113.101 134.849 112.229L108.155 99.5001C122.702 99.5001 137.249 99.5001 151.796 99.8637C166.342 100.227 180.016 99.8637 194.2 99.4273C195.363 99.4273 195.363 97.2453 193.909 97.0999Z" fill="#4200FF" fill-opacity="0.2"/>
<path d="M75.2796 37.5306C71.7157 30.2572 68.0062 22.9838 64.7332 15.3467C64.7332 15.3467 64.1513 15.3467 64.2241 15.3467C67.2062 22.6201 70.0428 30.6208 72.8067 38.3306C72.842 38.5126 72.9154 38.6849 73.0223 38.8363C73.1291 38.9877 73.2669 39.1147 73.4265 39.2089C73.5861 39.3031 73.7639 39.3623 73.9481 39.3827C74.1322 39.4031 74.3186 39.3841 74.495 39.3271C74.6713 39.27 74.8335 39.1762 74.9708 39.0518C75.1082 38.9274 75.2175 38.7753 75.2917 38.6055C75.3659 38.4356 75.4032 38.252 75.4011 38.0667C75.399 37.8814 75.3576 37.6987 75.2796 37.5306Z" fill="#4200FF" fill-opacity="0.2"/>
<path d="M79.3526 51.5684C79.559 51.7337 79.8156 51.8237 80.08 51.8237C80.3444 51.8237 80.6009 51.7337 80.8073 51.5684C81.0424 51.4184 81.211 51.184 81.2787 50.9135C81.3463 50.6429 81.3078 50.3568 81.171 50.1138L79.1344 46.0406C78.9395 45.8811 78.6954 45.7939 78.4435 45.7939C78.1916 45.7939 77.9474 45.8811 77.7525 46.0406C77.5836 46.2167 77.4893 46.4513 77.4893 46.6953C77.4893 46.9392 77.5836 47.1738 77.7525 47.3499C78.0434 48.7318 78.698 50.1138 79.3526 51.5684Z" fill="#4200FF" fill-opacity="0.2"/>
<path d="M113.392 52.0049C113.538 52.0743 113.698 52.1102 113.86 52.1101C114.022 52.1099 114.182 52.0737 114.328 52.0041C114.475 51.9345 114.604 51.8331 114.706 51.7074C114.808 51.5818 114.881 51.4349 114.919 51.2775C114.919 50.4047 115.429 49.4592 115.719 48.5864L116.738 46.0407C117.392 44.2951 118.047 42.5494 118.774 40.8038C118.774 40.8038 118.774 40.3674 118.265 40.8038C117.392 42.4767 116.592 44.1496 115.647 45.8225C114.701 47.4954 114.847 47.4226 114.41 48.2227L112.883 50.6229C112.78 50.8752 112.775 51.157 112.869 51.4128C112.963 51.6685 113.15 51.8797 113.392 52.0049Z" fill="#4200FF" fill-opacity="0.2"/>
<path d="M125.175 30.5481C127.211 26.2568 129.321 22.0383 131.357 17.747C132.012 16.4377 130.048 15.2013 129.393 16.5832L122.847 29.0935C122.674 29.4021 122.63 29.7671 122.725 30.1081C122.821 30.4491 123.048 30.7382 123.356 30.9118C123.665 31.0854 124.03 31.1293 124.371 31.0338C124.712 30.9384 125.001 30.7113 125.175 30.4027V30.5481Z" fill="#4200FF" fill-opacity="0.2"/>
<path d="M74.7706 152.305C72.4431 158.488 70.0429 164.597 67.4972 170.634C66.6971 172.525 69.9702 173.544 70.6248 171.507C72.5158 165.252 74.5524 159.069 76.6617 152.887C77.0981 151.651 75.207 151.141 74.7706 152.305Z" fill="#4200FF" fill-opacity="0.2"/>
<path d="M81.171 141.031C80.7902 140.926 80.388 140.926 80.0072 141.031C79.8204 141.088 79.6468 141.181 79.4969 141.306C79.3469 141.431 79.2237 141.585 79.1344 141.759L77.5343 145.322C77.493 145.514 77.493 145.713 77.5343 145.904C77.4612 146.091 77.4612 146.299 77.5343 146.486C77.5769 146.679 77.6652 146.859 77.7918 147.011C77.9183 147.163 78.0794 147.282 78.2616 147.359C78.6343 147.513 79.0526 147.513 79.4254 147.359C79.7922 147.226 80.101 146.969 80.2982 146.632L81.8256 142.995C81.8687 142.828 81.8687 142.653 81.8256 142.486C81.8986 142.299 81.8986 142.091 81.8256 141.904C81.7062 141.551 81.4768 141.245 81.171 141.031Z" fill="#4200FF" fill-opacity="0.2"/>
<path d="M115.647 140.522C115.554 140.338 115.42 140.177 115.257 140.051C115.093 139.925 114.903 139.838 114.702 139.795C114.507 139.709 114.296 139.664 114.083 139.664C113.87 139.664 113.66 139.709 113.465 139.795C113.281 139.888 113.12 140.021 112.994 140.185C112.868 140.349 112.781 140.538 112.738 140.74V141.177C112.663 141.438 112.663 141.715 112.738 141.977L114.774 146.632C114.875 146.81 115.011 146.967 115.173 147.092C115.336 147.217 115.521 147.308 115.72 147.359C115.926 147.451 116.149 147.499 116.374 147.499C116.6 147.499 116.823 147.451 117.029 147.359C117.208 147.258 117.364 147.123 117.489 146.96C117.614 146.798 117.705 146.612 117.756 146.414C117.849 146.208 117.896 145.985 117.896 145.759C117.896 145.533 117.849 145.31 117.756 145.104L115.647 140.522Z" fill="#4200FF" fill-opacity="0.2"/>
<path d="M121.102 156.015C120.229 154.342 117.756 156.015 118.556 157.542C121.393 163.579 124.23 169.616 127.212 175.507C127.438 175.878 127.801 176.146 128.221 176.255C128.642 176.363 129.089 176.304 129.467 176.089C129.82 175.864 130.072 175.51 130.167 175.102C130.262 174.694 130.193 174.265 129.976 173.907C127.212 167.87 124.157 161.979 121.102 156.015Z" fill="#4200FF" fill-opacity="0.2"/>
<path d="M146.632 118.338C146.398 118.265 146.147 118.273 145.918 118.36C145.69 118.447 145.497 118.608 145.371 118.818C145.245 119.028 145.194 119.274 145.224 119.517C145.255 119.759 145.367 119.985 145.541 120.156C150.487 123.429 155.287 126.63 160.088 129.757C161.761 130.776 163.361 128.084 161.615 127.066C156.815 124.084 151.723 121.247 146.632 118.338Z" fill="#4200FF" fill-opacity="0.2"/>
<path d="M172.815 132.448L170.197 130.921C169.983 130.858 169.756 130.858 169.542 130.921C169.28 130.85 169.004 130.85 168.742 130.921C168.528 130.866 168.302 130.866 168.088 130.921C167.881 131.079 167.708 131.277 167.579 131.503C167.469 131.73 167.412 131.978 167.412 132.23C167.412 132.482 167.469 132.731 167.579 132.958C167.716 133.44 168.027 133.854 168.451 134.121L170.997 135.649C171.472 135.79 171.977 135.79 172.452 135.649C172.699 135.59 172.926 135.464 173.106 135.285L173.615 134.776C173.799 134.283 173.799 133.741 173.615 133.248C173.437 132.906 173.157 132.627 172.815 132.448Z" fill="#4200FF" fill-opacity="0.2"/>
<path d="M141.25 76.8072C139.722 77.6073 141.25 79.7893 142.559 79.062C145.468 77.68 148.523 76.3708 151.578 75.2798C154.633 74.1888 157.76 73.316 160.815 72.225C161.114 72.1189 161.359 71.8984 161.495 71.6119C161.631 71.3255 161.649 70.9966 161.542 70.6976C161.436 70.3986 161.216 70.154 160.929 70.0176C160.643 69.8812 160.314 69.8641 160.015 69.9702C153.455 71.304 147.13 73.6083 141.25 76.8072Z" fill="#4200FF" fill-opacity="0.2"/>
<path d="M173.471 64.8788C173.732 64.9536 174.009 64.9536 174.271 64.8788L176.38 63.8605L176.816 63.4969C176.842 63.3038 176.842 63.1081 176.816 62.915C176.888 62.7027 176.888 62.4726 176.816 62.2604C176.849 62.0678 176.849 61.8711 176.816 61.6785C176.708 61.4923 176.561 61.3311 176.385 61.2058C176.21 61.0804 176.009 60.9936 175.798 60.9512H174.925L172.889 61.9695L172.452 62.4059C172.413 62.5978 172.413 62.7957 172.452 62.9877C172.379 63.1748 172.379 63.3825 172.452 63.5696C172.418 63.7865 172.418 64.0073 172.452 64.2242C172.723 64.5341 173.076 64.761 173.471 64.8788Z" fill="#4200FF" fill-opacity="0.2"/>
<path d="M35.0571 123.648C38.2026 122.223 41.4955 121.15 44.8762 120.448C45.0998 120.412 45.3132 120.329 45.5025 120.205C45.6918 120.081 45.8526 119.918 45.9743 119.727C46.0959 119.536 46.1757 119.322 46.2083 119.098C46.2409 118.874 46.2256 118.645 46.1634 118.428C46.1012 118.21 45.9936 118.008 45.8475 117.835C45.7015 117.662 45.5204 117.522 45.3163 117.424C45.1121 117.326 44.8895 117.273 44.6632 117.268C44.4369 117.262 44.212 117.305 44.0034 117.393C40.5045 118.493 37.2114 120.165 34.257 122.339C34.1414 122.467 34.0702 122.629 34.0542 122.801C34.0382 122.972 34.0782 123.145 34.1682 123.292C34.2581 123.439 34.3933 123.553 34.5535 123.618C34.7137 123.682 34.8904 123.692 35.0571 123.648Z" fill="#4200FF" fill-opacity="0.2"/>
<path d="M27.1293 124.884C24.9472 126.484 22.9107 128.157 20.6559 129.612C18.4582 131.056 16.1475 132.321 13.7462 133.394C12.8734 133.394 13.7462 135.14 14.3281 134.849C16.8922 134.032 19.3956 133.035 21.8197 131.867C24.4119 130.742 26.8549 129.3 29.0931 127.575C30.6205 126.339 28.6567 123.648 27.1293 124.884Z" fill="#4200FF" fill-opacity="0.2"/>
<path d="M54.9862 75.8616C55.1712 75.5127 55.214 75.1058 55.1055 74.7261C54.9971 74.3463 54.7457 74.0234 54.4043 73.825C50.9318 72.0388 47.3341 70.5074 43.6396 69.2428C43.3691 69.1666 43.0801 69.1909 42.8261 69.3112C42.572 69.4316 42.3701 69.6398 42.2577 69.8974C42.1653 70.1617 42.1654 70.4495 42.2579 70.7137C42.3504 70.978 42.5298 71.203 42.7668 71.3521C46.2113 72.8198 49.5633 74.4958 52.8041 76.3707C52.9745 76.5002 53.1713 76.5905 53.3806 76.6351C53.5899 76.6798 53.8065 76.6778 54.0148 76.6291C54.2232 76.5805 54.4183 76.4865 54.5862 76.3538C54.7541 76.2212 54.8907 76.0531 54.9862 75.8616Z" fill="#4200FF" fill-opacity="0.2"/>
<path d="M31.9297 65.9695C32.0901 66.0724 32.2699 66.1411 32.4581 66.1711C32.6462 66.2012 32.8385 66.192 33.0229 66.1442C33.2073 66.0964 33.3799 66.011 33.5297 65.8933C33.6795 65.7756 33.8034 65.6282 33.8935 65.4604C33.962 65.2842 33.9935 65.0958 33.9863 64.9068C33.979 64.7179 33.933 64.5325 33.8512 64.3621C33.7694 64.1916 33.6535 64.0398 33.5106 63.9159C33.3678 63.7921 33.2011 63.6989 33.0207 63.642H32.5843H31.7843L30.1841 62.842C29.1468 62.2556 28.1505 61.5995 27.202 60.8781C26.948 60.7372 26.6504 60.6963 26.3677 60.7636C26.0851 60.8309 25.8378 61.0015 25.6746 61.2418C25.485 61.4653 25.3809 61.7488 25.3809 62.0419C25.3809 62.335 25.485 62.6185 25.6746 62.842C27.6365 64.1145 29.7346 65.1636 31.9297 65.9695Z" fill="#4200FF" fill-opacity="0.2"/>
</svg>
