<svg xmlns:xlink="http://www.w3.org/1999/xlink"  width="16" height="19" viewBox="0 0 11 13" fill="none" xmlns="http://www.w3.org/2000/svg">
                                <path d="M1.09776 5.85718C1.31831 5.85718 1.5113 5.82209 1.67672 5.75191C1.84714 5.68174 1.99 5.5865 2.10529 5.4662C2.22058 5.34589 2.3083 5.20554 2.36846 5.04514C2.42861 4.88975 2.4637 4.72433 2.47372 4.54889H1.72183C1.46619 4.54889 1.25566 4.52132 1.09024 4.46618C0.924825 4.41104 0.794498 4.33084 0.699258 4.22558C0.604019 4.12031 0.536349 3.995 0.496248 3.84963C0.46116 3.69925 0.443615 3.53133 0.443615 3.34586C0.443615 3.15539 0.471185 2.97493 0.526323 2.8045C0.581462 2.63407 0.661664 2.4837 0.766928 2.35337C0.872193 2.22304 1.00252 2.12028 1.15791 2.04509C1.31831 1.96489 1.50127 1.92479 1.70679 1.92479C1.87221 1.92479 2.0301 1.95236 2.18048 2.0075C2.33086 2.06264 2.4637 2.15036 2.57898 2.27066C2.69427 2.38595 2.7845 2.53883 2.84967 2.72931C2.91984 2.91478 2.95493 3.14035 2.95493 3.40602V4.03008H3.67675C3.7369 4.03008 3.777 4.05264 3.79705 4.09775C3.82211 4.13786 3.83464 4.20051 3.83464 4.28573C3.83464 4.37595 3.82211 4.44362 3.79705 4.48874C3.777 4.52884 3.7369 4.54889 3.67675 4.54889H2.93989C2.92987 4.79451 2.87974 5.02759 2.78951 5.24815C2.7043 5.4687 2.584 5.66169 2.42861 5.8271C2.27322 5.99252 2.08775 6.12285 1.87221 6.21809C1.65667 6.31834 1.41355 6.36846 1.14287 6.36846H0.34587L0.300756 5.85718H1.09776ZM0.909788 3.31579C0.909788 3.4411 0.922319 3.54887 0.947382 3.6391C0.977458 3.72933 1.02508 3.80452 1.09024 3.86467C1.16042 3.91981 1.25315 3.96241 1.36844 3.99249C1.48373 4.01755 1.6291 4.03008 1.80454 4.03008H2.48124V3.46617C2.48124 3.09523 2.40856 2.82957 2.26319 2.66916C2.11783 2.50876 1.91732 2.42856 1.66168 2.42856C1.42107 2.42856 1.23561 2.50876 1.10528 2.66916C0.974952 2.82957 0.909788 3.04511 0.909788 3.31579ZM4.9193 4.03008C4.98447 4.03008 5.02707 4.05264 5.04712 4.09775C5.07219 4.13786 5.08472 4.20051 5.08472 4.28573C5.08472 4.37595 5.07219 4.44362 5.04712 4.48874C5.02707 4.52884 4.98447 4.54889 4.9193 4.54889H3.67868C3.61352 4.54889 3.57091 4.52884 3.55086 4.48874C3.5258 4.44864 3.51327 4.38598 3.51327 4.30077C3.51327 4.21054 3.5258 4.14287 3.55086 4.09775C3.57091 4.05264 3.61352 4.03008 3.67868 4.03008H4.9193ZM6.16022 4.03008C6.22538 4.03008 6.26799 4.05264 6.28804 4.09775C6.3131 4.13786 6.32563 4.20051 6.32563 4.28573C6.32563 4.37595 6.3131 4.44362 6.28804 4.48874C6.26799 4.52884 6.22538 4.54889 6.16022 4.54889H4.9196C4.85443 4.54889 4.81183 4.52884 4.79178 4.48874C4.76671 4.44864 4.75418 4.38598 4.75418 4.30077C4.75418 4.21054 4.76671 4.14287 4.79178 4.09775C4.81183 4.05264 4.85443 4.03008 4.9196 4.03008H6.16022ZM7.40113 4.03008C7.46629 4.03008 7.5089 4.05264 7.52895 4.09775C7.55401 4.13786 7.56655 4.20051 7.56655 4.28573C7.56655 4.37595 7.55401 4.44362 7.52895 4.48874C7.5089 4.52884 7.46629 4.54889 7.40113 4.54889H6.16051C6.09535 4.54889 6.05274 4.52884 6.03269 4.48874C6.00763 4.44864 5.99509 4.38598 5.99509 4.30077C5.99509 4.21054 6.00763 4.14287 6.03269 4.09775C6.05274 4.05264 6.09535 4.03008 6.16051 4.03008H7.40113ZM8.64204 4.03008C8.70721 4.03008 8.74981 4.05264 8.76986 4.09775C8.79493 4.13786 8.80746 4.20051 8.80746 4.28573C8.80746 4.37595 8.79493 4.44362 8.76986 4.48874C8.74981 4.52884 8.70721 4.54889 8.64204 4.54889H7.40142C7.33626 4.54889 7.29365 4.52884 7.2736 4.48874C7.24854 4.44864 7.23601 4.38598 7.23601 4.30077C7.23601 4.21054 7.24854 4.14287 7.2736 4.09775C7.29365 4.05264 7.33626 4.03008 7.40142 4.03008H8.64204ZM9.31904 4.03008C9.51453 4.03008 9.66992 3.97745 9.78521 3.87219C9.90551 3.76692 9.96566 3.62156 9.96566 3.43609V2.39848H10.4544V3.43609C10.4544 3.79199 10.3541 4.06768 10.1536 4.26317C9.95815 4.45365 9.68997 4.54889 9.34911 4.54889H8.64234C8.57717 4.54889 8.53457 4.52884 8.51452 4.48874C8.48945 4.44864 8.47692 4.38598 8.47692 4.30077C8.47692 4.21054 8.48945 4.14287 8.51452 4.09775C8.53457 4.05264 8.57717 4.03008 8.64234 4.03008H9.31904ZM10.5296 1.43606H9.92807V0.90222H10.5296V1.43606ZM9.57468 1.43606H8.97317V0.90222H9.57468V1.43606ZM4.45119 10.3985C4.45119 10.6692 4.40859 10.9223 4.32337 11.1579C4.23816 11.3985 4.11535 11.6065 3.95494 11.782C3.79454 11.9624 3.59905 12.1053 3.36847 12.2106C3.1429 12.3158 2.88726 12.3685 2.60154 12.3685H2.15793C1.59651 12.3685 1.16042 12.1955 0.849636 11.8497C0.538855 11.5038 0.383464 11.0301 0.383464 10.4286V9.11278H0.864674V10.4135C0.864674 10.6291 0.889737 10.8246 0.939863 11C0.995002 11.1755 1.07771 11.3258 1.18799 11.4512C1.30328 11.5815 1.44614 11.6817 1.61656 11.7519C1.78699 11.8221 1.99251 11.8572 2.23312 11.8572H2.56395C2.79954 11.8572 3.00506 11.8171 3.1805 11.7369C3.35594 11.6617 3.5013 11.5589 3.61659 11.4286C3.7369 11.2983 3.82462 11.1454 3.87976 10.9699C3.93991 10.7945 3.96998 10.6115 3.96998 10.4211V8.39848H4.45119V10.3985ZM2.63914 8.23307H2.00755V7.68419H2.63914V8.23307ZM6.39436 10.5489C6.26403 10.5489 6.13872 10.5313 6.01841 10.4963C5.89811 10.4562 5.79034 10.391 5.6951 10.3008C5.60487 10.2105 5.53219 10.0927 5.47705 9.94738C5.42191 9.797 5.39435 9.61153 5.39435 9.39098V5.88717H5.88307V9.30075C5.88307 9.51128 5.92819 9.68672 6.01841 9.82707C6.11365 9.96241 6.26654 10.0301 6.47707 10.0301H6.60489C6.71517 10.0301 6.77031 10.1153 6.77031 10.2857C6.77031 10.4612 6.71517 10.5489 6.60489 10.5489H6.39436ZM6.72872 10.0301C6.92421 10.0301 7.07208 9.98246 7.17233 9.88723C7.27258 9.79199 7.32271 9.66416 7.32271 9.50376V9.21804C7.32271 8.78195 7.43299 8.44109 7.65354 8.19547C7.87911 7.94985 8.18989 7.82705 8.58589 7.82705C8.7914 7.82705 8.97186 7.85963 9.12725 7.92479C9.28264 7.98995 9.41046 8.08269 9.51071 8.20299C9.61598 8.32329 9.69367 8.46615 9.7438 8.63157C9.79392 8.79698 9.81899 8.97994 9.81899 9.18045C9.81899 9.61153 9.7062 9.94738 9.48064 10.188C9.25507 10.4286 8.94679 10.5489 8.55581 10.5489C8.35531 10.5489 8.16232 10.5113 7.97685 10.4361C7.79139 10.3559 7.64602 10.2156 7.54076 10.015C7.49564 10.1303 7.44051 10.2231 7.37534 10.2932C7.31018 10.3634 7.24251 10.4186 7.17233 10.4587C7.10216 10.4938 7.02697 10.5188 6.94676 10.5339C6.87158 10.5439 6.79889 10.5489 6.72872 10.5489H6.60841C6.54325 10.5489 6.50064 10.5288 6.48059 10.4887C6.45553 10.4486 6.443 10.386 6.443 10.3008C6.443 10.2105 6.45553 10.1429 6.48059 10.0978C6.50064 10.0526 6.54325 10.0301 6.60841 10.0301H6.72872ZM9.33778 9.22556C9.33778 8.96491 9.28013 8.75438 9.16484 8.59397C9.04955 8.42856 8.85155 8.34585 8.57085 8.34585C8.04954 8.34585 7.78888 8.64911 7.78888 9.25564C7.78888 9.51128 7.85906 9.70427 7.99941 9.83459C8.14478 9.96492 8.33024 10.0301 8.55581 10.0301C8.81145 10.0301 9.00444 9.95991 9.13477 9.81956C9.27011 9.6792 9.33778 9.4812 9.33778 9.22556Z" fill="#98A3B8"></path>
                            </svg>