<svg width="19" height="18" viewBox="0 0 19 18" fill="none" xmlns="http://www.w3.org/2000/svg">
<path fill-rule="evenodd" clip-rule="evenodd" d="M9.5 1.69043C5.39888 1.69043 2.0625 5.0268 2.0625 9.12793C2.0625 13.2291 5.39888 16.5654 9.5 16.5654C13.6011 16.5654 16.9375 13.2291 16.9375 9.12793C16.9375 5.0268 13.6011 1.69043 9.5 1.69043ZM9.5 17.8779C4.67525 17.8779 0.75 13.9527 0.75 9.12793C0.75 4.30318 4.67525 0.37793 9.5 0.37793C14.3247 0.37793 18.25 4.30318 18.25 9.12793C18.25 13.9527 14.3247 17.8779 9.5 17.8779Z" fill="black"/>
<path fill-rule="evenodd" clip-rule="evenodd" d="M12.5024 12.3588C12.3877 12.3588 12.2722 12.3291 12.1664 12.2669L8.86761 10.2991C8.66986 10.1801 8.54736 9.96568 8.54736 9.73468V5.49268C8.54736 5.13043 8.84136 4.83643 9.20361 4.83643C9.56674 4.83643 9.85986 5.13043 9.85986 5.49268V9.36193L12.8392 11.1382C13.1499 11.3246 13.2522 11.7271 13.0667 12.0386C12.9434 12.2442 12.7255 12.3588 12.5024 12.3588Z" fill="black"/>
</svg>
