<svg width="19" height="14" viewBox="0 0 19 14" fill="none" xmlns="http://www.w3.org/2000/svg">
<mask id="mask0_412_2214" style="mask-type:luminance" maskUnits="userSpaceOnUse" x="0" y="0" width="14" height="14">
<path fill-rule="evenodd" clip-rule="evenodd" d="M0.125 0.00317383H13.6877V13.5669H0.125V0.00317383Z" fill="white"/>
</mask>
<g mask="url(#mask0_412_2214)">
<path fill-rule="evenodd" clip-rule="evenodd" d="M4.36622 1.31685C3.98209 1.31685 3.73447 1.31685 3.69159 1.3186C3.04584 1.34573 2.44997 1.6196 2.02034 2.0886C1.61959 2.52698 1.41309 3.08698 1.44022 3.66798C1.44022 6.19935 1.44109 9.9986 1.44722 10.2069C1.54697 11.4187 2.68272 12.3454 3.98297 12.2456C6.38922 12.2491 9.95397 12.257 10.1211 12.2509C10.7642 12.2246 11.361 11.9516 11.7906 11.4835C12.1922 11.0469 12.3987 10.4869 12.3733 9.90848C12.3725 9.89885 12.3725 9.88923 12.3725 9.8796C12.3733 7.3771 12.3733 3.58048 12.3672 3.3766C12.2683 2.1586 11.1273 1.2206 9.82009 1.32298C8.01234 1.32035 5.54572 1.31685 4.36622 1.31685ZM3.75284 13.5669C1.90309 13.5677 0.289594 12.1502 0.137344 10.2909C0.134719 10.255 0.125969 10.1456 0.128594 3.69773C0.0865936 2.7956 0.413844 1.8996 1.05259 1.20223C1.71934 0.474227 2.63897 0.0498517 3.64259 0.00697669C3.76422 -0.00177331 7.97122 0.00872669 9.77284 0.0122267C11.7416 -0.126023 13.5187 1.33523 13.6771 3.2961C13.6841 3.39148 13.6867 5.60085 13.685 9.86648C13.7217 10.7905 13.3927 11.6804 12.7575 12.3716C12.0898 13.0987 11.1693 13.5214 10.1666 13.5625C10.0441 13.5712 5.83534 13.5599 4.03109 13.5564C3.93834 13.5634 3.84559 13.5669 3.75284 13.5669Z" fill="black"/>
</g>
<path fill-rule="evenodd" clip-rule="evenodd" d="M16.5911 11.6836C16.1965 11.6836 15.8071 11.548 15.486 11.2846L12.6151 8.92558C12.3351 8.69545 12.2949 8.28158 12.525 8.00158C12.7543 7.72245 13.1681 7.68045 13.4481 7.91145L16.3181 10.2705C16.5115 10.428 16.7058 10.3632 16.781 10.3265C16.8563 10.2915 17.0304 10.1821 17.0304 9.93358L17.0409 3.5032C17.0418 3.2547 16.8668 3.14533 16.7915 3.10945C16.7171 3.07445 16.5203 3.00883 16.3286 3.16633L13.4473 5.52445C13.1655 5.75458 12.7534 5.71345 12.5241 5.4317C12.294 5.1517 12.336 4.7387 12.616 4.50945L15.4974 2.15045C16.0259 1.71733 16.7373 1.63245 17.3541 1.92383C17.971 2.21695 18.3543 2.82245 18.3534 3.50495L18.3429 9.93533C18.342 10.6178 17.9579 11.2233 17.3419 11.5138C17.1004 11.6285 16.8449 11.6836 16.5911 11.6836Z" fill="black"/>
</svg>
